# Blender 4.0.2
# www.blender.org
o plastic_chair_01
v -0.167301 0.646991 -0.267587
v -0.167301 0.316925 -0.148993
v -0.167301 0.355342 -0.202821
v -0.167301 0.318327 -0.166639
v -0.167301 0.326120 -0.183064
v -0.167301 0.339118 -0.195770
v -0.167301 0.307979 0.150067
v -0.167301 0.345357 0.104006
v -0.167301 0.323732 0.145334
v -0.167301 0.336367 0.134919
v -0.167301 0.343961 0.120406
v -0.167301 0.650500 -0.251764
v -0.167301 0.333193 -0.149259
v -0.167301 0.360368 -0.187334
v -0.167301 0.334236 -0.162381
v -0.167301 0.339509 -0.173495
v -0.167301 0.348303 -0.182091
v -0.167301 0.311103 0.166051
v -0.167301 0.361631 0.103786
v -0.167301 0.331512 0.159920
v -0.167301 0.349195 0.145344
v -0.167301 0.359822 0.125034
v -0.083651 0.650500 -0.264670
v -0.083651 0.360368 -0.191982
v -0.083651 0.336367 0.134919
v -0.083651 0.348303 -0.186739
v -0.083651 0.323732 0.145334
v -0.083651 0.339509 -0.178142
v -0.083651 0.361631 0.103786
v -0.083651 0.646991 -0.280493
v -0.083651 0.334236 -0.167029
v -0.083651 0.333193 -0.153907
v -0.083651 0.359822 0.125034
v -0.083651 0.355342 -0.207468
v -0.083651 0.316925 -0.153641
v -0.083651 0.349195 0.145344
v -0.083651 0.339118 -0.200418
v -0.083651 0.331512 0.159920
v -0.083651 0.326120 -0.187712
v -0.083651 0.345357 0.104006
v -0.083651 0.318327 -0.171286
v -0.083651 0.343961 0.120406
v -0.083651 0.311103 0.166051
v -0.083651 0.307979 0.150067
v -0.167301 0.289224 0.151848
v -0.167301 0.290860 0.167974
v -0.000000 0.316925 -0.156104
v -0.000000 0.318327 -0.173749
v -0.000000 0.326120 -0.190175
v -0.000000 0.339118 -0.202881
v -0.000000 0.355342 -0.209931
v -0.000000 0.646991 -0.284540
v 0.000000 0.307979 0.150067
v 0.000000 0.323732 0.145334
v 0.000000 0.336367 0.134919
v 0.000000 0.343961 0.120406
v 0.000000 0.345357 0.104006
v -0.000000 0.333193 -0.156370
v -0.000000 0.334236 -0.169492
v -0.000000 0.339509 -0.180605
v -0.000000 0.348303 -0.189202
v -0.000000 0.360368 -0.194445
v -0.000000 0.650500 -0.268717
v 0.000000 0.311103 0.166051
v 0.000000 0.331512 0.159920
v 0.000000 0.349195 0.145344
v 0.000000 0.359822 0.125034
v 0.000000 0.361631 0.103786
v 0.000000 0.289224 0.151848
v 0.000000 0.290860 0.167974
v 0.167301 0.646991 -0.267587
v 0.167301 0.316925 -0.148993
v 0.167301 0.355342 -0.202821
v 0.167301 0.318327 -0.166639
v 0.167301 0.326120 -0.183064
v 0.167301 0.339118 -0.195770
v 0.167301 0.307979 0.150067
v 0.167301 0.345357 0.104006
v 0.167301 0.323732 0.145334
v 0.167301 0.336367 0.134919
v 0.167301 0.343961 0.120406
v 0.167301 0.650500 -0.251764
v 0.167301 0.333193 -0.149259
v 0.167301 0.360368 -0.187334
v 0.167301 0.334236 -0.162381
v 0.167301 0.339509 -0.173495
v 0.167301 0.348303 -0.182091
v 0.167301 0.311103 0.166051
v 0.167301 0.361631 0.103786
v 0.167301 0.331512 0.159920
v 0.167301 0.349195 0.145344
v 0.167301 0.359822 0.125034
v 0.083651 0.650500 -0.264670
v 0.083651 0.360368 -0.191982
v 0.083651 0.336367 0.134919
v 0.083651 0.348303 -0.186739
v 0.083651 0.323732 0.145334
v 0.083651 0.339509 -0.178142
v 0.083651 0.361631 0.103786
v 0.083651 0.646991 -0.280493
v 0.083651 0.334236 -0.167029
v 0.083651 0.333193 -0.153907
v 0.083651 0.359822 0.125034
v 0.083651 0.355342 -0.207468
v 0.083651 0.316925 -0.153641
v 0.083651 0.349195 0.145344
v 0.083651 0.339118 -0.200418
v 0.083651 0.331512 0.159920
v 0.083651 0.326120 -0.187712
v 0.083651 0.345357 0.104006
v 0.083651 0.318327 -0.171286
v 0.083651 0.343961 0.120406
v 0.083651 0.311103 0.166051
v 0.083651 0.307979 0.150067
v 0.167301 0.289224 0.151848
v 0.167301 0.290860 0.167974
v -0.083651 0.290860 0.167974
v -0.083651 0.289224 0.151848
v 0.083651 0.290860 0.167974
v 0.083651 0.289224 0.151848
v -0.183244 0.000000 -0.206795
v -0.183244 0.000000 -0.222931
v -0.167301 0.000000 -0.206795
v -0.167301 0.000000 -0.222931
v -0.183244 0.328042 -0.153474
v -0.183244 0.329679 -0.169600
v -0.167301 0.328042 -0.153474
v -0.167301 0.329679 -0.169600
v -0.167301 0.000000 0.179324
v -0.167301 0.000000 0.195460
v -0.151359 0.000000 0.179324
v -0.151359 0.000000 0.195460
v -0.167301 0.289224 0.151848
v -0.167301 0.290860 0.167974
v -0.151359 0.289224 0.151848
v -0.151359 0.290860 0.167974
v 0.183244 0.000000 -0.206795
v 0.183244 0.000000 -0.222931
v 0.167301 0.000000 -0.206795
v 0.167301 0.000000 -0.222931
v 0.183244 0.328042 -0.153474
v 0.183244 0.329679 -0.169600
v 0.167301 0.328042 -0.153474
v 0.167301 0.329679 -0.169600
v 0.167301 0.000000 0.179324
v 0.167301 0.000000 0.195460
v 0.151359 0.000000 0.179324
v 0.151359 0.000000 0.195460
v 0.167301 0.289224 0.151848
v 0.167301 0.290860 0.167974
v 0.151359 0.289224 0.151848
v 0.151359 0.290860 0.167974
vn -1.0000 -0.0000 -0.0000
vn 0.0111 0.9657 0.2595
vn -0.0000 0.9652 0.2613
vn -0.0000 0.8124 0.5831
vn 0.0247 0.8130 0.5817
vn -0.0000 0.9601 0.2797
vn -0.0000 0.9999 -0.0122
vn -0.0012 0.9999 -0.0126
vn -0.0692 -0.2372 -0.9690
vn -0.0000 -0.2454 -0.9694
vn -0.0000 -0.3226 -0.9465
vn -0.0546 -0.3186 -0.9463
vn 0.0006 0.9999 -0.0146
vn -0.0000 0.9999 -0.0133
vn -0.0000 0.7765 0.6302
vn -0.0352 -0.5570 -0.8298
vn -0.0000 -0.5564 -0.8309
vn -0.0000 -0.9652 -0.2613
vn -0.0000 -0.9999 0.0133
vn -0.0006 -0.9999 0.0146
vn -0.0111 -0.9657 -0.2595
vn -0.0000 0.4712 0.8820
vn -0.0247 -0.8130 -0.5817
vn -0.0000 -0.8124 -0.5831
vn -0.0000 0.1921 0.9814
vn -0.0000 0.0946 0.9955
vn -0.0000 -0.7765 -0.6302
vn -0.0000 -0.4712 -0.8820
vn 0.0352 0.5570 0.8298
vn -0.0000 0.5564 0.8309
vn -0.0000 0.3226 0.9465
vn 0.0546 0.3187 0.9463
vn -0.0000 -0.9601 -0.2797
vn -0.0226 0.9760 -0.2164
vn -0.0000 0.9763 -0.2165
vn -0.0212 0.9761 -0.2164
vn -0.0000 0.2455 0.9694
vn 0.0692 0.2373 0.9690
vn 0.0012 -0.9999 0.0126
vn 0.0015 -0.9999 0.0130
vn -0.0000 -0.0946 -0.9955
vn -0.0000 -0.1921 -0.9814
vn -0.0000 -0.9999 0.0122
vn 0.0763 0.3157 0.9458
vn 0.1016 0.2288 0.9682
vn -0.0015 0.9999 -0.0130
vn 0.0005 0.9998 -0.0192
vn 0.0140 0.9676 0.2522
vn 0.0320 0.8165 0.5765
vn -0.0140 -0.9676 -0.2522
vn -0.0320 -0.8165 -0.5765
vn -0.0459 -0.5604 -0.8269
vn 0.0459 0.5604 0.8269
vn -0.0763 -0.3156 -0.9458
vn -0.0000 -0.9949 0.1010
vn -0.1016 -0.2287 -0.9682
vn -0.0005 -0.9998 0.0192
vn -0.0334 0.9757 -0.2164
vn 1.0000 -0.0000 -0.0000
vn -0.0546 0.3187 0.9463
vn -0.0692 0.2373 0.9690
vn -0.0763 0.3157 0.9458
vn -0.1016 0.2288 0.9682
vn -0.0012 -0.9999 0.0126
vn -0.0320 0.8165 0.5765
vn -0.0459 0.5604 0.8269
vn -0.0352 0.5570 0.8298
vn -0.0247 0.8130 0.5817
vn -0.0140 0.9676 0.2522
vn -0.0111 0.9657 0.2595
vn 0.0320 -0.8165 -0.5765
vn 0.0247 -0.8130 -0.5817
vn 0.0352 -0.5570 -0.8298
vn 0.0459 -0.5604 -0.8269
vn 0.0111 -0.9657 -0.2595
vn 0.0140 -0.9676 -0.2522
vn 0.0005 -0.9998 0.0192
vn 0.0006 -0.9999 0.0146
vn 0.0692 -0.2372 -0.9690
vn 0.0546 -0.3186 -0.9463
vn 0.0012 0.9999 -0.0126
vn -0.0006 0.9999 -0.0146
vn 0.0015 0.9999 -0.0130
vn -0.0015 -0.9999 0.0130
vn 0.0226 0.9760 -0.2164
vn 0.0212 0.9761 -0.2164
vn -0.0005 0.9998 -0.0192
vn 0.0334 0.9757 -0.2164
vn 0.1016 -0.2287 -0.9682
vn 0.0763 -0.3156 -0.9458
vn -0.0000 0.1597 -0.9872
vn -0.0000 -1.0000 -0.0000
vn -0.0000 -0.1604 0.9870
vn -0.0000 0.9949 0.1010
vn -0.0000 0.0941 0.9956
vt 0.004883 0.948793
vt 0.004883 0.928881
vt 0.367317 0.928881
vt 0.367317 0.948794
vt 0.386074 0.928881
vt 0.386074 0.948794
vt 0.404601 0.928881
vt 0.404601 0.948794
vt 0.423129 0.928881
vt 0.423129 0.948794
vt 0.441886 0.928881
vt 0.441886 0.948794
vt 0.751365 0.928881
vt 0.751365 0.948793
vt 0.774328 0.928881
vt 0.774328 0.948793
vt 0.798217 0.928881
vt 0.798217 0.948793
vt 0.822105 0.928881
vt 0.822105 0.948793
vt 0.845069 0.928881
vt 0.845069 0.948793
vt 0.469558 0.312266
vt 0.469558 0.209850
vt 0.484605 0.209850
vt 0.484605 0.312266
vt 0.111939 0.312266
vt 0.111939 0.209850
vt 0.138021 0.209850
vt 0.138021 0.312266
vt 0.878598 0.613441
vt 0.878598 0.715858
vt 0.511446 0.715858
vt 0.511446 0.613441
vt 0.453458 0.312266
vt 0.453458 0.209850
vt 0.083898 0.312266
vt 0.083898 0.209850
vt 0.489796 0.613441
vt 0.489796 0.715858
vt 0.445315 0.715858
vt 0.423665 0.715858
vt 0.423665 0.613441
vt 0.445315 0.613441
vt 0.055858 0.312266
vt 0.055858 0.209850
vt 0.467555 0.613441
vt 0.467555 0.715858
vt 0.029775 0.312266
vt 0.004888 0.312266
vt 0.004888 0.209850
vt 0.029775 0.209850
vt 0.068110 0.613441
vt 0.068110 0.715858
vt 0.048073 0.715858
vt 0.048073 0.613441
vt 0.499652 0.312266
vt 0.499652 0.209850
vt 0.515752 0.209850
vt 0.515752 0.312266
vt 0.088147 0.613441
vt 0.068110 0.510885
vt 0.088147 0.510885
vt 0.108073 0.956880
vt 0.210181 0.956880
vt 0.210181 0.976627
vt 0.108073 0.976627
vt 0.880996 0.209850
vt 0.880996 0.312266
vt 0.108279 0.613441
vt 0.108279 0.510885
vt 0.004882 0.613441
vt 0.027941 0.613441
vt 0.027941 0.715858
vt 0.004882 0.715858
vt 0.108279 0.715858
vt 0.515752 0.414820
vt 0.880996 0.414820
vt 0.138021 0.414820
vt 0.453458 0.414820
vt 0.088147 0.715858
vt 0.083898 0.414820
vt 0.055858 0.414820
vt 0.469558 0.414820
vt 0.484605 0.414820
vt 0.445315 0.510885
vt 0.467555 0.510885
vt 0.489796 0.510885
vt 0.499652 0.414820
vt 0.511446 0.510885
vt 0.868892 0.928881
vt 0.868892 0.948793
vt 0.111939 0.414820
vt 0.029775 0.414820
vt 0.048073 0.510885
vt 0.525590 0.976686
vt 0.525590 0.956879
vt 0.627885 0.956879
vt 0.627885 0.976686
vt 0.878598 0.510885
vt 0.423665 0.510885
vt 0.027941 0.510885
vt 0.004879 0.956880
vt 0.004879 0.976627
vt 0.975112 0.869038
vt 0.975112 0.506543
vt 0.995027 0.506543
vt 0.995028 0.869038
vt 0.975112 0.469252
vt 0.975112 0.450722
vt 0.995027 0.450722
vt 0.995027 0.469252
vt 0.975112 0.431961
vt 0.995028 0.431961
vt 0.975112 0.487783
vt 0.995027 0.487783
vt 0.975112 0.122431
vt 0.995027 0.122431
vt 0.975112 0.075571
vt 0.975112 0.051678
vt 0.995028 0.051678
vt 0.995028 0.075571
vt 0.975112 0.028711
vt 0.995028 0.028711
vt 0.975112 0.099464
vt 0.995028 0.099464
vt 0.068110 0.818276
vt 0.048073 0.818276
vt 0.004882 0.818276
vt 0.027941 0.818276
vt 0.055858 0.107434
vt 0.029775 0.107434
vt 0.515752 0.107434
vt 0.880996 0.107434
vt 0.515752 0.004880
vt 0.880996 0.004880
vt 0.108279 0.818276
vt 0.088147 0.818276
vt 0.484605 0.004880
vt 0.499652 0.004880
vt 0.499652 0.107434
vt 0.484605 0.107434
vt 0.469558 0.004880
vt 0.469558 0.107434
vt 0.467555 0.920831
vt 0.467555 0.818276
vt 0.489796 0.818276
vt 0.489796 0.920831
vt 0.445315 0.818276
vt 0.445315 0.920831
vt 0.423665 0.920831
vt 0.423665 0.818276
vt 0.111939 0.107434
vt 0.083898 0.107434
vt 0.878598 0.818276
vt 0.511446 0.818276
vt 0.730181 0.976686
vt 0.730181 0.956879
vt 0.055858 0.004880
vt 0.029775 0.004880
vt 0.048073 0.920831
vt 0.027941 0.920831
vt 0.975112 0.004884
vt 0.995028 0.004884
vt 0.138021 0.107434
vt 0.453458 0.107434
vt 0.088147 0.920831
vt 0.068110 0.920831
vt 0.111939 0.004880
vt 0.138021 0.004880
vt 0.108279 0.920831
vt 0.312290 0.956880
vt 0.312290 0.976627
vt 0.083898 0.004880
vt 0.453458 0.004880
vt 0.415484 0.956880
vt 0.415484 0.976627
vt 0.878598 0.920832
vt 0.511446 0.920831
vt 0.004888 0.107434
vt 0.004888 0.414820
vt 0.004882 0.510885
vt 0.423294 0.976686
vt 0.423294 0.956879
vt 0.004888 0.004880
vt 0.004882 0.920831
vt 0.832477 0.956879
vt 0.832477 0.976686
vt 0.927986 0.411620
vt 0.927986 0.004886
vt 0.908266 0.004886
vt 0.908266 0.411620
vt 0.947440 0.411620
vt 0.967161 0.411620
vt 0.967161 0.004886
vt 0.947441 0.004886
vt 0.830045 0.450884
vt 0.810553 0.450884
vt 0.810553 0.470597
vt 0.830045 0.470597
vt 0.888812 0.004886
vt 0.888812 0.411620
vt 0.783017 0.442377
vt 0.802826 0.442377
vt 0.802826 0.422879
vt 0.783017 0.422879
vt 0.419229 0.462128
vt 0.419229 0.442371
vt 0.775214 0.442371
vt 0.775214 0.462128
vt 0.419229 0.481619
vt 0.775214 0.481619
vt 0.775214 0.501376
vt 0.419229 0.501376
vt 0.837864 0.450881
vt 0.857582 0.450882
vt 0.857582 0.470378
vt 0.837864 0.470378
vt 0.419229 0.422880
vt 0.775214 0.422880
vt 0.004879 0.462078
vt 0.004879 0.481808
vt 0.411414 0.481808
vt 0.411414 0.462078
vt 0.004879 0.442614
vt 0.411414 0.442614
vt 0.411414 0.422885
vt 0.004879 0.422885
vt 0.810644 0.422888
vt 0.810644 0.442601
vt 0.830135 0.442601
vt 0.830135 0.422888
vt 0.004879 0.501271
vt 0.411414 0.501271
vt 0.837943 0.442690
vt 0.857436 0.442690
vt 0.857436 0.422886
vt 0.837943 0.422886
vt 0.928053 0.776849
vt 0.928053 0.420885
vt 0.947809 0.420885
vt 0.947809 0.776849
vt 0.908563 0.776849
vt 0.888807 0.776849
vt 0.888807 0.420885
vt 0.908563 0.420885
vt 0.783022 0.470381
vt 0.783022 0.450885
vt 0.802740 0.450885
vt 0.802740 0.470381
vt 0.967299 0.420885
vt 0.967299 0.776849
s 1
f 12/1/1 1/2/1 3/3/1 14/4/1
f 14/4/1 3/3/1 6/5/1 17/6/1
f 17/6/1 6/5/1 5/7/1 16/8/1
f 16/8/1 5/7/1 4/9/1 15/10/1
f 15/10/1 4/9/1 2/11/1 13/12/1
f 13/12/1 2/11/1 8/13/1 19/14/1
f 19/14/1 8/13/1 11/15/1 22/16/1
f 22/16/1 11/15/1 10/17/1 21/18/1
f 21/18/1 10/17/1 9/19/1 20/20/1
f 20/20/1 9/19/1 7/21/1 18/22/1
f 31/23/2 59/24/3 60/25/4 28/26/5
f 33/27/6 67/28/6 68/29/7 29/30/8
f 30/31/9 52/32/10 51/33/11 34/34/12
f 31/23/2 32/35/13 58/36/14 59/24/3
f 33/27/6 36/37/15 66/38/15 67/28/6
f 37/39/16 34/34/12 51/33/11 50/40/17
f 48/41/18 47/42/19 35/43/20 41/44/21
f 36/37/15 38/45/22 65/46/22 66/38/15
f 39/47/23 37/39/16 50/40/17 49/48/24
f 43/49/25 117/50/26 70/51/26 64/52/25
f 25/53/27 55/54/27 54/55/28 27/56/28
f 26/57/29 61/58/30 62/59/31 24/60/32
f 42/61/33 25/53/27 10/62/27 11/63/33
f 23/64/34 63/65/35 52/66/35 30/67/36
f 24/60/32 62/59/31 63/68/37 23/69/38
f 40/70/39 42/61/33 11/63/33 8/71/40
f 118/72/41 44/73/42 53/74/42 69/75/41
f 41/44/21 39/47/23 49/48/24 48/41/18
f 38/45/22 43/49/25 64/52/25 65/46/22
f 40/70/39 35/43/20 47/42/19 57/76/43
f 14/77/44 24/60/32 23/69/38 12/78/45
f 19/79/46 29/30/8 32/35/13 13/80/47
f 57/76/43 56/81/33 42/61/33 40/70/39
f 21/82/15 20/83/22 38/45/22 36/37/15
f 15/84/48 31/23/2 28/26/5 16/85/49
f 4/86/50 5/87/51 39/47/23 41/44/21
f 5/87/51 6/88/52 37/39/16 39/47/23
f 27/56/28 54/55/28 53/74/42 44/73/42
f 29/30/8 68/29/7 58/36/14 32/35/13
f 28/26/5 60/25/4 61/58/30 26/57/29
f 16/85/49 28/26/5 26/57/29 17/89/53
f 6/88/52 3/90/54 34/34/12 37/39/16
f 18/22/1 7/21/1 45/91/1 46/92/1
f 22/93/6 33/27/6 29/30/8 19/79/46
f 20/83/22 18/94/25 43/49/25 38/45/22
f 10/62/27 25/53/27 27/56/28 9/95/28
f 117/96/55 118/97/55 69/98/55 70/99/55
f 1/100/56 30/31/9 34/34/12 3/90/54
f 17/89/53 26/57/29 24/60/32 14/77/44
f 15/84/48 13/80/47 32/35/13 31/23/2
f 8/71/40 2/101/57 35/43/20 40/70/39
f 56/81/33 55/54/27 25/53/27 42/61/33
f 22/93/6 21/82/15 36/37/15 33/27/6
f 9/95/28 27/56/28 44/73/42 7/102/42
f 12/103/58 23/64/34 30/67/36 1/104/58
f 41/44/21 35/43/20 2/101/57 4/86/50
f 82/105/59 84/106/59 73/107/59 71/108/59
f 86/109/59 85/110/59 74/111/59 75/112/59
f 85/110/59 83/113/59 72/114/59 74/111/59
f 87/115/59 86/109/59 75/112/59 76/116/59
f 84/106/59 87/115/59 76/116/59 73/107/59
f 83/113/59 89/117/59 78/118/59 72/114/59
f 91/119/59 90/120/59 79/121/59 80/122/59
f 90/120/59 88/123/59 77/124/59 79/121/59
f 92/125/59 91/119/59 80/122/59 81/126/59
f 89/117/59 92/125/59 81/126/59 78/118/59
f 95/127/27 97/128/28 54/55/28 55/54/27
f 120/129/41 69/75/41 53/74/42 114/130/42
f 108/131/22 65/46/22 64/52/25 113/132/25
f 94/133/60 93/134/61 63/68/37 62/59/31
f 84/135/62 82/136/63 93/134/61 94/133/60
f 57/76/43 110/137/64 112/138/33 56/81/33
f 86/139/65 87/140/66 96/141/67 98/142/68
f 85/143/69 86/139/65 98/142/68 101/144/70
f 75/145/71 109/146/72 107/147/73 76/148/74
f 111/149/75 74/150/76 72/151/77 105/152/78
f 103/153/6 67/28/6 66/38/15 106/154/15
f 100/155/79 104/156/80 51/33/11 52/32/10
f 119/157/55 70/99/55 69/98/55 120/158/55
f 109/146/72 49/48/24 50/40/17 107/147/73
f 101/144/70 98/142/68 60/25/4 59/24/3
f 90/159/22 108/131/22 113/132/25 88/160/25
f 79/161/28 77/162/42 114/130/42 97/128/28
f 88/123/59 116/163/59 115/164/59 77/124/59
f 87/140/66 84/135/62 94/133/60 96/141/67
f 99/165/81 102/166/82 58/36/14 68/29/7
f 103/153/6 99/165/81 68/29/7 67/28/6
f 112/138/33 81/167/33 80/168/27 95/127/27
f 80/168/27 79/161/28 97/128/28 95/127/27
f 74/150/76 111/149/75 109/146/72 75/145/71
f 96/141/67 94/133/60 62/59/31 61/58/30
f 92/169/6 89/170/83 99/165/81 103/153/6
f 97/128/28 114/130/42 53/74/42 54/55/28
f 78/171/84 110/137/64 105/152/78 72/151/77
f 93/172/85 100/173/86 52/66/35 63/65/35
f 48/41/18 111/149/75 105/152/78 47/42/19
f 106/154/15 66/38/15 65/46/22 108/131/22
f 91/174/15 106/154/15 108/131/22 90/159/22
f 92/169/6 103/153/6 106/154/15 91/174/15
f 111/149/75 48/41/18 49/48/24 109/146/72
f 85/143/69 101/144/70 102/166/82 83/175/87
f 107/147/73 50/40/17 51/33/11 104/156/80
f 82/176/88 71/177/88 100/173/86 93/172/85
f 110/137/64 57/76/43 47/42/19 105/152/78
f 101/144/70 59/24/3 58/36/14 102/166/82
f 110/137/64 78/171/84 81/167/33 112/138/33
f 98/142/68 96/141/67 61/58/30 60/25/4
f 71/178/89 73/179/90 104/156/80 100/155/79
f 89/170/83 83/175/87 102/166/82 99/165/81
f 56/81/33 112/138/33 95/127/27 55/54/27
f 113/132/25 64/52/25 70/51/26 119/180/26
f 76/148/74 107/147/73 104/156/80 73/179/90
f 18/94/25 46/181/26 117/50/26 43/49/25
f 45/182/41 7/102/42 44/73/42 118/72/41
f 118/97/55 117/96/55 46/183/55 45/184/55
f 88/160/25 113/132/25 119/180/26 116/185/26
f 115/186/41 120/129/41 114/130/42 77/162/42
f 120/158/55 115/187/55 116/188/55 119/157/55
s 0
f 126/189/1 122/190/1 121/191/1 125/192/1
f 128/193/59 127/194/59 123/195/59 124/196/59
f 126/189/91 128/193/91 124/196/91 122/190/91
f 122/197/92 124/198/92 123/199/92 121/200/92
f 121/191/93 123/201/93 127/202/93 125/192/93
f 127/203/94 128/204/94 126/205/94 125/206/94
f 134/207/1 133/208/1 129/209/1 130/210/1
f 136/211/59 132/212/59 131/213/59 135/214/59
f 134/207/95 130/210/95 132/212/95 136/211/95
f 130/215/92 129/216/92 131/217/92 132/218/92
f 129/209/41 133/208/41 135/219/41 131/220/41
f 142/221/59 141/222/59 137/223/59 138/224/59
f 144/225/1 140/226/1 139/227/1 143/228/1
f 142/221/91 138/224/91 140/226/91 144/225/91
f 138/229/92 137/230/92 139/231/92 140/232/92
f 137/223/93 141/222/93 143/233/93 139/234/93
f 143/235/94 141/236/94 142/237/94 144/238/94
f 150/239/59 146/240/59 145/241/59 149/242/59
f 152/243/1 151/244/1 147/245/1 148/246/1
f 150/239/95 152/243/95 148/246/95 146/240/95
f 146/247/92 148/248/92 147/249/92 145/250/92
f 145/241/41 147/251/41 151/252/41 149/242/41
