# Blender 4.0.2
# www.blender.org
o display_table_01
v -0.465000 0.281337 0.465000
v -0.465000 0.281337 -0.465000
v 0.465000 0.281337 0.465000
v 0.465000 0.281337 -0.465000
v -0.110628 0.910000 0.110628
v -0.110628 0.910000 -0.110628
v 0.110628 0.910000 0.110628
v 0.110628 0.910000 -0.110628
v -0.310000 0.593859 0.310000
v -0.310000 0.593859 -0.310000
v 0.310000 0.593859 0.310000
v 0.310000 0.593859 -0.310000
v -0.465000 -0.000000 -0.465000
v -0.465000 -0.000000 0.465000
v 0.465000 -0.000000 -0.465000
v 0.465000 -0.000000 0.465000
v -0.110628 0.633859 -0.110628
v -0.110628 0.633859 0.110628
v 0.110628 0.633859 -0.110628
v 0.110628 0.633859 0.110628
v -0.310000 0.321337 -0.310000
v -0.310000 0.321337 0.310000
v 0.310000 0.321337 -0.310000
v 0.310000 0.321337 0.310000
v -0.600000 0.321337 0.540000
v -0.540000 0.321337 0.600000
v -0.539931 0.321337 0.539931
v -0.595433 0.321337 0.562961
v -0.582426 0.321337 0.582426
v -0.562961 0.321337 0.595433
v -0.540000 0.321337 -0.600000
v -0.600000 0.321337 -0.540000
v -0.539931 0.321337 -0.539931
v -0.562961 0.321337 -0.595433
v -0.582426 0.321337 -0.582426
v -0.595433 0.321337 -0.562961
v 0.540000 0.321337 0.600000
v 0.600000 0.321337 0.540000
v 0.539931 0.321337 0.539931
v 0.562961 0.321337 0.595433
v 0.582426 0.321337 0.582426
v 0.595433 0.321337 0.562961
v 0.600000 0.321337 -0.540000
v 0.540000 0.321337 -0.600000
v 0.539931 0.321337 -0.539931
v 0.595433 0.321337 -0.562961
v 0.582426 0.321337 -0.582426
v 0.562961 0.321337 -0.595433
v -0.233300 0.950000 0.233300
v -0.233300 0.950000 -0.233300
v 0.233607 0.950000 0.233607
v 0.233604 0.950000 -0.233754
v -0.445000 0.633859 0.385000
v -0.385000 0.633859 0.445000
v -0.384821 0.633859 0.384821
v -0.440433 0.633859 0.407961
v -0.427426 0.633859 0.427426
v -0.407961 0.633859 0.440433
v -0.385000 0.633859 -0.445000
v -0.445000 0.633859 -0.385000
v -0.384821 0.633859 -0.384821
v -0.407961 0.633859 -0.440433
v -0.427426 0.633859 -0.427426
v -0.440433 0.633859 -0.407961
v 0.385000 0.633859 0.445000
v 0.445000 0.633859 0.385000
v 0.384821 0.633859 0.384821
v 0.407961 0.633859 0.440433
v 0.427426 0.633859 0.427426
v 0.440433 0.633859 0.407961
v 0.445000 0.633859 -0.385000
v 0.385000 0.633859 -0.445000
v 0.384821 0.633859 -0.384821
v 0.440433 0.633859 -0.407961
v 0.427426 0.633859 -0.427426
v 0.407961 0.633859 -0.440433
v -0.600000 0.281337 -0.540000
v -0.540000 0.281337 -0.600000
v -0.539931 0.281337 -0.539931
v -0.595433 0.281337 -0.562961
v -0.582426 0.281337 -0.582426
v -0.562961 0.281337 -0.595433
v -0.540000 0.281337 0.600000
v -0.600000 0.281337 0.540000
v -0.539931 0.281337 0.539931
v -0.562961 0.281337 0.595433
v -0.582426 0.281337 0.582426
v -0.595433 0.281337 0.562961
v 0.540000 0.281337 -0.600000
v 0.600000 0.281337 -0.540000
v 0.539931 0.281337 -0.539931
v 0.562961 0.281337 -0.595433
v 0.582426 0.281337 -0.582426
v 0.595433 0.281337 -0.562961
v 0.600000 0.281337 0.540000
v 0.540000 0.281337 0.600000
v 0.539931 0.281337 0.539931
v 0.595433 0.281337 0.562961
v 0.582426 0.281337 0.582426
v 0.562961 0.281337 0.595433
v -0.295000 0.910000 -0.235000
v -0.235000 0.910000 -0.295000
v -0.233195 0.910000 -0.233195
v -0.290433 0.910000 -0.257961
v -0.277426 0.910000 -0.277426
v -0.257961 0.910000 -0.290433
v -0.235000 0.910000 0.295000
v -0.295000 0.910000 0.235000
v -0.233195 0.910000 0.233195
v -0.257961 0.910000 0.290433
v -0.277426 0.910000 0.277426
v -0.290433 0.910000 0.257961
v 0.235000 0.910000 -0.295000
v 0.295000 0.910000 -0.235000
v 0.233195 0.910000 -0.233195
v 0.257961 0.910000 -0.290433
v 0.277426 0.910000 -0.277426
v 0.290433 0.910000 -0.257961
v 0.295000 0.910000 0.235000
v 0.235000 0.910000 0.295000
v 0.233195 0.910000 0.233195
v 0.290433 0.910000 0.257961
v 0.277426 0.910000 0.277426
v 0.257961 0.910000 0.290433
v -0.445000 0.593859 -0.385000
v -0.385000 0.593859 -0.445000
v -0.384821 0.593859 -0.384821
v -0.440433 0.593859 -0.407961
v -0.427426 0.593859 -0.427426
v -0.407961 0.593859 -0.440433
v -0.385000 0.593859 0.445000
v -0.445000 0.593859 0.385000
v -0.384821 0.593859 0.384821
v -0.407961 0.593859 0.440433
v -0.427426 0.593859 0.427426
v -0.440433 0.593859 0.407961
v 0.385000 0.593859 -0.445000
v 0.445000 0.593859 -0.385000
v 0.384821 0.593859 -0.384821
v 0.407961 0.593859 -0.440433
v 0.427426 0.593859 -0.427426
v 0.440433 0.593859 -0.407961
v 0.445000 0.593859 0.385000
v 0.385000 0.593859 0.445000
v 0.384821 0.593859 0.384821
v 0.440433 0.593859 0.407961
v 0.427426 0.593859 0.427426
v 0.407961 0.593859 0.440433
v -0.235000 0.950000 0.295000
v -0.257961 0.950000 0.290433
v -0.277426 0.950000 0.277426
v -0.290433 0.950000 0.257961
v -0.295000 0.950000 0.235000
v -0.257961 0.950000 -0.290433
v -0.235000 0.950000 -0.295000
v -0.277426 0.950000 -0.277426
v -0.290433 0.950000 -0.257961
v -0.295000 0.950000 -0.235000
v 0.290433 0.950000 -0.257961
v 0.295000 0.950000 -0.235000
v 0.277426 0.950000 -0.277426
v 0.257961 0.950000 -0.290433
v 0.235000 0.950000 -0.295000
v 0.257961 0.950000 0.290433
v 0.235000 0.950000 0.295000
v 0.277426 0.950000 0.277426
v 0.290433 0.950000 0.257961
v 0.295000 0.950000 0.235000
vn -0.0000 1.0000 -0.0000
vn -0.9952 -0.0000 0.0980
vn -0.9952 -0.0000 -0.0980
vn 1.0000 -0.0000 -0.0000
vn -0.0000 -1.0000 -0.0000
vn 0.0980 -0.0000 0.9952
vn -0.0980 -0.0000 0.9952
vn 0.9952 -0.0000 -0.0980
vn 0.9952 -0.0000 0.0980
vn -0.0000 -0.0000 -1.0000
vn -0.0980 -0.0000 -0.9952
vn 0.0980 -0.0000 -0.9952
vn -0.0000 -0.0000 1.0000
vn -1.0000 -0.0000 -0.0000
vn -0.3827 -0.0000 0.9239
vn -0.7071 -0.0000 0.7071
vn -0.9239 -0.0000 0.3827
vn -0.3827 -0.0000 -0.9239
vn -0.7071 -0.0000 -0.7071
vn -0.9239 -0.0000 -0.3827
vn 0.9239 -0.0000 -0.3827
vn 0.7071 -0.0000 -0.7071
vn 0.3827 -0.0000 -0.9239
vn 0.3827 -0.0000 0.9239
vn 0.7071 -0.0000 0.7071
vn 0.9239 -0.0000 0.3827
vt 0.396719 0.444455
vt 0.317880 0.523293
vt 0.105297 0.523293
vt 0.026459 0.444455
vt 0.026459 0.814714
vt 0.105297 0.735876
vt 0.317880 0.735876
vt 0.396719 0.814714
vt 0.794584 0.971862
vt 0.794584 0.985576
vt 0.424299 0.985577
vt 0.424299 0.971863
vt 0.475338 0.461723
vt 0.475338 0.385863
vt 0.570016 0.385863
vt 0.570016 0.461724
vt 0.742048 0.005864
vt 0.742048 0.324734
vt 0.423177 0.324734
vt 0.423177 0.005864
vt 0.949526 0.815163
vt 0.963241 0.815163
vt 0.963241 0.976303
vt 0.949527 0.976303
vt 0.949526 0.621916
vt 0.963241 0.621916
vt 0.963241 0.783057
vt 0.949526 0.783057
vt 0.956076 0.318020
vt 0.969790 0.318020
vt 0.969790 0.582017
vt 0.956076 0.582017
vt 0.850221 0.638449
vt 0.850221 0.425864
vt 0.943663 0.425864
vt 0.943663 0.638449
vt 0.982822 0.783056
vt 0.969107 0.783056
vt 0.969107 0.621915
vt 0.982822 0.621915
vt 0.342528 0.344378
vt 0.248514 0.250365
vt 0.248514 0.174502
vt 0.342528 0.080489
vt 0.982822 0.976303
vt 0.969107 0.976303
vt 0.969107 0.815162
vt 0.982822 0.815162
vt 0.026459 0.026460
vt 0.026459 0.396726
vt 0.005863 0.396749
vt 0.005863 0.026436
vt 0.975646 0.021916
vt 0.989360 0.021916
vt 0.989360 0.285914
vt 0.975646 0.285914
vt 0.078639 0.080489
vt 0.172652 0.174502
vt 0.172652 0.250365
vt 0.078639 0.344378
vt 0.396726 0.026460
vt 0.026436 0.005863
vt 0.396749 0.005863
vt 0.423169 0.643858
vt 0.742038 0.643858
vt 0.742038 0.740320
vt 0.423169 0.740320
vt 0.929018 0.396957
vt 0.929017 0.237046
vt 0.950209 0.236428
vt 0.950209 0.397576
vt 0.396726 0.396726
vt 0.396749 0.417322
vt 0.026436 0.417322
vt 0.769107 0.396957
vt 0.929637 0.418149
vt 0.768488 0.418149
vt 0.417322 0.026436
vt 0.417322 0.396749
vt 0.443816 0.352489
vt 0.443816 0.616371
vt 0.423183 0.616433
vt 0.423183 0.352427
vt 0.769107 0.237046
vt 0.768488 0.215855
vt 0.929637 0.215855
vt 0.707698 0.352489
vt 0.443754 0.331855
vt 0.707760 0.331855
vt 0.747916 0.397576
vt 0.747916 0.236428
vt 0.886993 0.279071
vt 0.811131 0.279071
vt 0.707698 0.616371
vt 0.707760 0.637004
vt 0.443754 0.637004
vt 0.956075 0.021916
vt 0.969790 0.021916
vt 0.969790 0.285914
vt 0.956076 0.285914
vt 0.943665 0.645862
vt 0.943665 0.858434
vt 0.850229 0.858434
vt 0.850229 0.645862
vt 0.005858 0.841863
vt 0.324727 0.841863
vt 0.324727 0.938325
vt 0.005858 0.938325
vt 0.423170 0.747859
vt 0.742039 0.747859
vt 0.742038 0.844321
vt 0.423170 0.844321
vt 0.575880 0.461728
vt 0.575880 0.385863
vt 0.670565 0.385863
vt 0.670565 0.461728
vt 0.543165 0.945300
vt 0.330594 0.945300
vt 0.330594 0.851864
vt 0.543166 0.851864
vt 0.575884 0.543721
vt 0.575884 0.467860
vt 0.670563 0.467860
vt 0.670563 0.543721
vt 0.747906 0.744732
vt 0.747906 0.425863
vt 0.844368 0.425863
vt 0.844368 0.744732
vt 0.475336 0.543717
vt 0.475336 0.467857
vt 0.570015 0.467857
vt 0.570015 0.543717
vt 0.549030 0.851863
vt 0.761608 0.851862
vt 0.761608 0.945302
vt 0.549030 0.945302
vt 0.021910 0.965570
vt 0.021910 0.951855
vt 0.392194 0.951856
vt 0.392194 0.965571
vt 0.975646 0.318020
vt 0.989360 0.318020
vt 0.989360 0.582018
vt 0.975646 0.582018
vt 0.018563 0.425425
vt 0.026436 0.423859
vt 0.011889 0.429885
vt 0.018563 0.833745
vt 0.011889 0.829285
vt 0.026436 0.835310
vt 0.007429 0.822611
vt 0.005863 0.814738
vt 0.404614 0.425425
vt 0.411289 0.429885
vt 0.396742 0.423859
vt 0.415748 0.436559
vt 0.417314 0.444432
vt 0.415748 0.822611
vt 0.411289 0.829285
vt 0.417314 0.814738
vt 0.404614 0.833745
vt 0.396742 0.835310
vt 0.007429 0.018563
vt 0.011889 0.011889
vt 0.361596 0.072555
vt 0.363161 0.080428
vt 0.357136 0.065881
vt 0.059571 0.072555
vt 0.064030 0.065881
vt 0.058005 0.080428
vt 0.070705 0.061421
vt 0.078577 0.059855
vt 0.361596 0.352312
vt 0.357136 0.358986
vt 0.363161 0.344439
vt 0.350462 0.363446
vt 0.342589 0.365012
vt 0.070705 0.363446
vt 0.064030 0.358986
vt 0.078577 0.365012
vt 0.059571 0.352312
vt 0.058005 0.344439
vt 0.948643 0.405449
vt 0.944183 0.412123
vt 0.018563 0.007429
vt 0.018563 0.415756
vt 0.011889 0.411297
vt 0.007429 0.404622
vt 0.404622 0.007429
vt 0.411296 0.011889
vt 0.415756 0.018563
vt 0.415756 0.404622
vt 0.411296 0.411297
vt 0.404622 0.415756
vt 0.937509 0.416582
vt 0.937509 0.217421
vt 0.944183 0.221881
vt 0.948643 0.228555
vt 0.760615 0.416582
vt 0.753941 0.412123
vt 0.749482 0.405449
vt 0.749482 0.228555
vt 0.753941 0.221881
vt 0.760615 0.217422
vt 0.424749 0.344555
vt 0.429208 0.337881
vt 0.435882 0.333421
vt 0.435882 0.635438
vt 0.429208 0.630979
vt 0.424749 0.624305
vt 0.715632 0.333421
vt 0.722306 0.337881
vt 0.726766 0.344555
vt 0.728332 0.352427
vt 0.726766 0.624305
vt 0.722306 0.630979
vt 0.728332 0.616433
vt 0.715632 0.635438
vt 0.948640 0.195454
vt 0.944181 0.202128
vt 0.929051 0.186999
vt 0.950206 0.187582
vt 0.794584 0.965570
vt 0.794584 0.951855
vt 0.802611 0.951855
vt 0.802611 0.965570
vt 0.810637 0.951855
vt 0.810637 0.965570
vt 0.810637 0.971862
vt 0.810637 0.985576
vt 0.802611 0.985576
vt 0.802611 0.971862
vt 0.392193 0.985577
vt 0.392193 0.971863
vt 0.400220 0.971863
vt 0.400220 0.985577
vt 0.408246 0.971863
vt 0.408246 0.985577
vt 0.416273 0.971863
vt 0.416273 0.985577
vt 0.013883 0.965570
vt 0.013883 0.951855
vt 0.005857 0.965570
vt 0.005857 0.951855
vt 0.005856 0.985576
vt 0.005856 0.971862
vt 0.013882 0.971862
vt 0.013882 0.985576
vt 0.021909 0.971862
vt 0.021909 0.985576
vt 0.424300 0.951856
vt 0.424300 0.965571
vt 0.416273 0.965571
vt 0.416273 0.951856
vt 0.408247 0.965571
vt 0.408247 0.951856
vt 0.400220 0.965571
vt 0.400220 0.951856
vt 0.963241 0.984330
vt 0.949527 0.984330
vt 0.963241 0.992356
vt 0.949527 0.992356
vt 0.982822 0.992356
vt 0.969107 0.992356
vt 0.969107 0.984330
vt 0.982822 0.984330
vt 0.982822 0.791083
vt 0.969107 0.791083
vt 0.982822 0.799109
vt 0.969107 0.799109
vt 0.982822 0.807136
vt 0.969107 0.807136
vt 0.949526 0.613889
vt 0.963241 0.613889
vt 0.949526 0.605863
vt 0.963241 0.605863
vt 0.969107 0.605862
vt 0.982822 0.605862
vt 0.982822 0.613889
vt 0.969107 0.613889
vt 0.949526 0.807136
vt 0.963241 0.807136
vt 0.949526 0.799110
vt 0.963241 0.799110
vt 0.949526 0.791083
vt 0.963241 0.791083
vt 0.969790 0.590044
vt 0.956076 0.590044
vt 0.969790 0.598070
vt 0.956076 0.598070
vt 0.975646 0.005863
vt 0.989360 0.005863
vt 0.989360 0.013890
vt 0.975646 0.013890
vt 0.975646 0.309994
vt 0.989360 0.309994
vt 0.975646 0.301967
vt 0.989360 0.301968
vt 0.975646 0.293941
vt 0.989360 0.293941
vt 0.956075 0.013890
vt 0.969790 0.013890
vt 0.956075 0.005863
vt 0.969790 0.005863
vt 0.989360 0.598071
vt 0.975646 0.598071
vt 0.975646 0.590044
vt 0.989360 0.590044
vt 0.956076 0.309994
vt 0.969790 0.309994
vt 0.956076 0.301967
vt 0.969790 0.301967
vt 0.956076 0.293941
vt 0.969790 0.293941
vt 0.937507 0.206588
vt 0.929634 0.208153
vt 0.769071 0.186999
vt 0.753942 0.202128
vt 0.749482 0.195454
vt 0.747916 0.187582
vt 0.768488 0.208153
vt 0.760616 0.206588
vt 0.948640 0.018562
vt 0.950206 0.026435
vt 0.929207 0.026914
vt 0.944181 0.011888
vt 0.749482 0.018562
vt 0.753942 0.011888
vt 0.768966 0.026913
vt 0.747916 0.026435
vt 0.937507 0.007429
vt 0.929634 0.005863
vt 0.760616 0.007429
vt 0.768488 0.005863
vt 0.007429 0.436559
vt 0.005863 0.444432
vt 0.342589 0.059855
vt 0.052152 0.371033
vt 0.371033 0.371033
vt 0.371033 0.052152
vt 0.052152 0.052152
vt 0.469469 0.378142
vt 0.469469 0.590718
vt 0.682045 0.590718
vt 0.682045 0.378142
vt 0.811131 0.354933
vt 0.886993 0.354933
vt 0.350462 0.061421
s 1
f 39/1/1 24/2/1 22/3/1 27/4/1
f 33/5/1 21/6/1 23/7/1 45/8/1
f 84/9/2 25/10/2 32/11/3 77/12/3
f 8/13/4 7/14/4 20/15/4 19/16/4
f 13/17/5 15/18/5 16/19/5 14/20/5
f 120/21/6 165/22/6 149/23/7 107/24/7
f 114/25/8 160/26/8 168/27/9 119/28/9
f 144/29/6 65/30/6 54/31/7 131/32/7
f 10/33/10 12/34/10 23/35/10 21/36/10
f 102/37/11 155/38/11 163/39/12 113/40/12
f 67/41/1 20/42/1 18/43/1 55/44/1
f 108/45/2 153/46/2 158/47/3 101/48/3
f 79/49/5 85/50/5 84/51/5 77/52/5
f 132/53/2 53/54/2 60/55/3 125/56/3
f 61/57/1 17/58/1 19/59/1 73/60/1
f 91/61/5 79/49/5 78/62/5 89/63/5
f 4/64/4 3/65/4 16/66/4 15/67/4
f 103/68/5 109/69/5 108/70/5 101/71/5
f 85/50/5 97/72/5 96/73/5 83/74/5
f 115/75/5 103/68/5 102/76/5 113/77/5
f 97/72/5 91/61/5 90/78/5 95/79/5
f 127/80/5 133/81/5 132/82/5 125/83/5
f 109/69/5 121/84/5 120/85/5 107/86/5
f 139/87/5 127/80/5 126/88/5 137/89/5
f 121/84/5 115/75/5 114/90/5 119/91/5
f 5/92/5 7/93/5 121/84/5 109/69/5
f 73/60/1 19/59/1 20/42/1 67/41/1
f 133/81/5 145/94/5 144/95/5 131/96/5
f 138/97/8 71/98/8 66/99/9 143/100/9
f 12/101/4 11/102/4 24/103/4 23/104/4
f 3/105/13 1/106/13 14/107/13 16/108/13
f 1/109/14 2/110/14 13/111/14 14/112/14
f 7/113/13 5/114/13 18/115/13 20/116/13
f 11/117/13 9/118/13 22/119/13 24/120/13
f 5/121/14 6/122/14 17/123/14 18/124/14
f 2/125/10 4/126/10 15/127/10 13/128/10
f 6/129/10 8/130/10 19/131/10 17/132/10
f 9/133/14 10/134/14 21/135/14 22/136/14
f 55/44/1 18/43/1 17/58/1 61/57/1
f 90/137/8 43/138/8 38/139/9 95/140/9
f 126/141/11 59/142/11 72/143/12 137/144/12
f 45/8/1 23/7/1 24/2/1 39/1/1
f 30/145/1 26/146/1 27/4/1 29/147/1
f 34/148/1 35/149/1 33/5/1 31/150/1
f 36/151/1 32/152/1 33/5/1 35/149/1
f 40/153/1 41/154/1 39/1/1 37/155/1
f 42/156/1 38/157/1 39/1/1 41/154/1
f 46/158/1 47/159/1 45/8/1 43/160/1
f 48/161/1 44/162/1 45/8/1 47/159/1
f 80/163/5 81/164/5 79/49/5 77/52/5
f 58/165/1 54/166/1 55/44/1 57/167/1
f 62/168/1 63/169/1 61/57/1 59/170/1
f 64/171/1 60/172/1 61/57/1 63/169/1
f 68/173/1 69/174/1 67/41/1 65/175/1
f 70/176/1 66/177/1 67/41/1 69/174/1
f 74/178/1 75/179/1 73/60/1 71/180/1
f 76/181/1 72/182/1 73/60/1 75/179/1
f 104/183/5 105/184/5 103/68/5 101/71/5
f 82/185/5 78/62/5 79/49/5 81/164/5
f 86/186/5 87/187/5 85/50/5 83/74/5
f 88/188/5 84/51/5 85/50/5 87/187/5
f 92/189/5 93/190/5 91/61/5 89/63/5
f 94/191/5 90/78/5 91/61/5 93/190/5
f 98/192/5 99/193/5 97/72/5 95/79/5
f 100/194/5 96/73/5 97/72/5 99/193/5
f 106/195/5 102/76/5 103/68/5 105/184/5
f 110/196/5 111/197/5 109/69/5 107/86/5
f 112/198/5 108/70/5 109/69/5 111/197/5
f 116/199/5 117/200/5 115/75/5 113/77/5
f 118/201/5 114/90/5 115/75/5 117/200/5
f 122/202/5 123/203/5 121/84/5 119/91/5
f 124/204/5 120/85/5 121/84/5 123/203/5
f 128/205/5 129/206/5 127/80/5 125/83/5
f 130/207/5 126/88/5 127/80/5 129/206/5
f 134/208/5 135/209/5 133/81/5 131/96/5
f 136/210/5 132/82/5 133/81/5 135/209/5
f 140/211/5 141/212/5 139/87/5 137/89/5
f 142/213/5 138/214/5 139/87/5 141/212/5
f 146/215/5 147/216/5 145/94/5 143/217/5
f 148/218/5 144/95/5 145/94/5 147/216/5
f 154/219/1 156/220/1 50/221/1 155/222/1
f 83/223/7 26/224/7 30/225/15 86/226/15
f 86/226/15 30/225/15 29/227/16 87/228/16
f 87/229/16 29/230/16 28/231/17 88/232/17
f 88/232/17 28/231/17 25/10/2 84/9/2
f 31/233/11 78/234/11 82/235/18 34/236/18
f 34/236/18 82/235/18 81/237/19 35/238/19
f 35/238/19 81/237/19 80/239/20 36/240/20
f 36/240/20 80/239/20 77/12/3 32/11/3
f 43/138/8 90/137/8 94/241/21 46/242/21
f 46/242/21 94/241/21 93/243/22 47/244/22
f 47/245/22 93/246/22 92/247/23 48/248/23
f 48/248/23 92/247/23 89/249/12 44/250/12
f 37/251/6 96/252/6 100/253/24 40/254/24
f 40/254/24 100/253/24 99/255/25 41/256/25
f 41/256/25 99/255/25 98/257/26 42/258/26
f 42/258/26 98/257/26 95/140/9 38/139/9
f 107/24/7 149/23/7 150/259/15 110/260/15
f 110/260/15 150/259/15 151/261/16 111/262/16
f 111/263/16 151/264/16 152/265/17 112/266/17
f 112/266/17 152/265/17 153/46/2 108/45/2
f 155/38/11 102/37/11 106/267/18 154/268/18
f 154/268/18 106/267/18 105/269/19 156/270/19
f 156/270/19 105/269/19 104/271/20 157/272/20
f 157/272/20 104/271/20 101/48/3 158/47/3
f 160/26/8 114/25/8 118/273/21 159/274/21
f 159/274/21 118/273/21 117/275/22 161/276/22
f 161/277/22 117/278/22 116/279/23 162/280/23
f 162/280/23 116/279/23 113/40/12 163/39/12
f 165/22/6 120/21/6 124/281/24 164/282/24
f 164/282/24 124/281/24 123/283/25 166/284/25
f 166/284/25 123/283/25 122/285/26 167/286/26
f 167/286/26 122/285/26 119/28/9 168/27/9
f 131/32/7 54/31/7 58/287/15 134/288/15
f 134/288/15 58/287/15 57/289/16 135/290/16
f 135/291/16 57/292/16 56/293/17 136/294/17
f 136/294/17 56/293/17 53/54/2 132/53/2
f 59/142/11 126/141/11 130/295/18 62/296/18
f 62/296/18 130/295/18 129/297/19 63/298/19
f 63/298/19 129/297/19 128/299/20 64/300/20
f 64/300/20 128/299/20 125/56/3 60/55/3
f 71/98/8 138/97/8 142/301/21 74/302/21
f 74/302/21 142/301/21 141/303/22 75/304/22
f 75/305/22 141/306/22 140/307/23 76/308/23
f 76/308/23 140/307/23 137/144/12 72/143/12
f 65/30/6 144/29/6 148/309/24 68/310/24
f 68/310/24 148/309/24 147/311/25 69/312/25
f 69/312/25 147/311/25 146/313/26 70/314/26
f 70/314/26 146/313/26 143/100/9 66/99/9
f 78/234/11 31/233/11 44/250/12 89/249/12
f 157/315/1 158/316/1 50/221/1 156/220/1
f 49/317/1 151/318/1 150/319/1 149/320/1
f 49/317/1 153/321/1 152/322/1 151/318/1
f 162/323/1 163/324/1 52/325/1 161/326/1
f 164/327/1 166/328/1 51/329/1 165/330/1
f 159/331/1 161/326/1 52/325/1 160/332/1
f 167/333/1 168/334/1 51/329/1 166/328/1
f 28/335/1 29/147/1 27/4/1 25/336/1
f 96/252/6 37/251/6 26/224/7 83/223/7
f 27/4/1 22/3/1 21/6/1 33/5/1
f 49/317/1 50/221/1 158/316/1 153/321/1
f 51/329/1 49/317/1 149/320/1 165/330/1
f 50/221/1 52/325/1 163/324/1 155/222/1
f 52/325/1 51/329/1 168/334/1 160/332/1
f 59/170/1 61/57/1 73/60/1 72/182/1
f 53/337/1 55/44/1 61/57/1 60/172/1
f 71/180/1 73/60/1 67/41/1 66/177/1
f 65/175/1 67/41/1 55/44/1 54/166/1
f 43/160/1 45/8/1 39/1/1 38/157/1
f 31/150/1 33/5/1 45/8/1 44/162/1
f 37/155/1 39/1/1 27/4/1 26/146/1
f 25/336/1 27/4/1 33/5/1 32/152/1
f 1/338/5 3/339/5 97/72/5 85/50/5
f 3/339/5 4/340/5 91/61/5 97/72/5
f 2/341/5 1/338/5 85/50/5 79/49/5
f 4/340/5 2/341/5 79/49/5 91/61/5
f 10/342/5 9/343/5 133/81/5 127/80/5
f 9/343/5 11/344/5 145/94/5 133/81/5
f 12/345/5 10/342/5 127/80/5 139/87/5
f 11/344/5 12/345/5 139/87/5 145/94/5
f 8/346/5 6/347/5 103/68/5 115/75/5
f 6/347/5 5/92/5 109/69/5 103/68/5
f 56/348/1 57/167/1 55/44/1 53/337/1
f 52/325/1 50/221/1 49/317/1 51/329/1
f 145/94/5 139/87/5 138/214/5 143/217/5
f 7/93/5 8/346/5 115/75/5 121/84/5
