# Blender 4.0.2
# www.blender.org
o storage_shelving_01
v -0.500000 -0.000000 0.150000
v -0.500000 1.496859 0.150000
v -0.500000 -0.000000 -0.150000
v -0.500000 1.496859 -0.150000
v -0.462159 -0.000000 0.150000
v -0.462159 1.496859 0.150000
v -0.462159 -0.000000 -0.150000
v -0.462159 1.496859 -0.150000
v 0.500000 -0.000000 0.150000
v 0.500000 1.496859 0.150000
v 0.500000 -0.000000 -0.150000
v 0.500000 1.496859 -0.150000
v 0.462159 -0.000000 0.150000
v 0.462159 1.496859 0.150000
v 0.462159 -0.000000 -0.150000
v 0.462159 1.496859 -0.150000
v -0.462159 0.229261 0.150000
v 0.462159 0.229261 0.150000
v -0.462159 0.229261 -0.150000
v 0.462159 0.229261 -0.150000
v -0.462159 0.190317 0.150000
v 0.462159 0.190317 0.150000
v -0.462159 0.190317 -0.150000
v 0.462159 0.190317 -0.150000
v -0.462159 0.521345 0.150000
v 0.462159 0.521345 0.150000
v -0.462159 0.521345 -0.150000
v 0.462159 0.521345 -0.150000
v -0.462159 0.482401 0.150000
v 0.462159 0.482401 0.150000
v -0.462159 0.482401 -0.150000
v 0.462159 0.482401 -0.150000
v -0.462159 0.940580 0.150000
v 0.462159 0.940580 0.150000
v -0.462159 0.940580 -0.150000
v 0.462159 0.940580 -0.150000
v -0.462159 0.901636 0.150000
v 0.462159 0.901636 0.150000
v -0.462159 0.901636 -0.150000
v 0.462159 0.901636 -0.150000
v -0.462159 1.291049 0.150000
v 0.462159 1.291049 0.150000
v -0.462159 1.291049 -0.150000
v 0.462159 1.291049 -0.150000
v -0.462159 1.252105 0.150000
v 0.462159 1.252105 0.150000
v -0.462159 1.252105 -0.150000
v 0.462159 1.252105 -0.150000
v -0.462159 0.864430 0.146336
v -0.462159 0.901636 0.146336
v -0.462159 0.864430 -0.150000
v -0.462159 0.901636 -0.150000
v -0.430108 0.864430 0.146336
v -0.430108 0.901636 0.146336
v -0.430108 0.864430 -0.150000
v -0.430108 0.901636 -0.150000
v -0.462159 0.153111 0.146336
v -0.462159 0.190317 0.146336
v -0.462159 0.153111 -0.150000
v -0.462159 0.190317 -0.150000
v -0.430108 0.153111 0.146336
v -0.430108 0.190317 0.146336
v -0.430108 0.153111 -0.150000
v -0.430108 0.190317 -0.150000
v -0.462159 0.445195 0.146336
v -0.462159 0.482401 0.146336
v -0.462159 0.445195 -0.150000
v -0.462159 0.482401 -0.150000
v -0.430108 0.445195 0.146336
v -0.430108 0.482401 0.146336
v -0.430108 0.445195 -0.150000
v -0.430108 0.482401 -0.150000
v -0.462159 1.214899 0.146336
v -0.462159 1.252105 0.146336
v -0.462159 1.214899 -0.150000
v -0.462159 1.252105 -0.150000
v -0.430108 1.214899 0.146336
v -0.430108 1.252105 0.146336
v -0.430108 1.214899 -0.150000
v -0.430108 1.252105 -0.150000
v 0.462159 0.864430 0.146336
v 0.462159 0.901636 0.146336
v 0.462159 0.864430 -0.150000
v 0.462159 0.901636 -0.150000
v 0.430108 0.864430 0.146336
v 0.430108 0.901636 0.146336
v 0.430108 0.864430 -0.150000
v 0.430108 0.901636 -0.150000
v 0.462159 0.153111 0.146336
v 0.462159 0.190317 0.146336
v 0.462159 0.153111 -0.150000
v 0.462159 0.190317 -0.150000
v 0.430108 0.153111 0.146336
v 0.430108 0.190317 0.146336
v 0.430108 0.153111 -0.150000
v 0.430108 0.190317 -0.150000
v 0.462159 0.445195 0.146336
v 0.462159 0.482401 0.146336
v 0.462159 0.445195 -0.150000
v 0.462159 0.482401 -0.150000
v 0.430108 0.445195 0.146336
v 0.430108 0.482401 0.146336
v 0.430108 0.445195 -0.150000
v 0.430108 0.482401 -0.150000
v 0.462159 1.214899 0.146336
v 0.462159 1.252105 0.146336
v 0.462159 1.214899 -0.150000
v 0.462159 1.252105 -0.150000
v 0.430108 1.214899 0.146336
v 0.430108 1.252105 0.146336
v 0.430108 1.214899 -0.150000
v 0.430108 1.252105 -0.150000
vn -1.0000 -0.0000 -0.0000
vn -0.0000 -0.0000 -1.0000
vn 1.0000 -0.0000 -0.0000
vn -0.0000 -0.0000 1.0000
vn -0.0000 -1.0000 -0.0000
vn -0.0000 1.0000 -0.0000
vt 0.639327 0.400902
vt 0.020521 0.400903
vt 0.020521 0.276882
vt 0.639327 0.276881
vt 0.975209 0.623792
vt 0.975210 0.004877
vt 0.990856 0.004877
vt 0.990856 0.623792
vt 0.639327 0.540568
vt 0.020521 0.540568
vt 0.020521 0.416547
vt 0.639327 0.416547
vt 0.940291 0.682886
vt 0.955931 0.682886
vt 0.955931 0.806885
vt 0.940291 0.806885
vt 0.004877 0.540568
vt 0.004877 0.416547
vt 0.639328 0.144542
vt 0.639328 0.268563
vt 0.020521 0.268564
vt 0.020521 0.144543
vt 0.908562 0.682887
vt 0.908562 0.806886
vt 0.892921 0.806886
vt 0.892921 0.682887
vt 0.639328 0.128899
vt 0.020521 0.128898
vt 0.004887 0.994529
vt 0.004887 0.978883
vt 0.623802 0.978882
vt 0.623802 0.994529
vt 0.639328 0.004878
vt 0.020521 0.004877
vt 0.004877 0.128898
vt 0.004878 0.004877
vt 0.821180 0.688912
vt 0.821180 0.564886
vt 0.837280 0.564886
vt 0.837280 0.688912
vt 0.845096 0.806870
vt 0.845096 0.682888
vt 0.861191 0.682888
vt 0.861191 0.806870
vt 0.869004 0.806912
vt 0.869004 0.682886
vt 0.885104 0.682886
vt 0.885104 0.806912
vt 0.969114 0.674982
vt 0.845089 0.674982
vt 0.845089 0.658881
vt 0.969114 0.658881
vt 0.915074 0.526886
vt 0.931175 0.526886
vt 0.931175 0.650911
vt 0.915074 0.650911
vt 0.807929 0.819397
vt 0.807929 0.696884
vt 0.823311 0.696884
vt 0.823311 0.819397
vt 0.845088 0.588878
vt 0.858342 0.588878
vt 0.858342 0.604262
vt 0.845088 0.604262
vt 0.777445 0.517405
vt 0.777445 0.394884
vt 0.790697 0.394884
vt 0.790697 0.517405
vt 0.858342 0.580256
vt 0.845094 0.580256
vt 0.845094 0.564878
vt 0.858342 0.564878
vt 0.806080 0.394884
vt 0.806080 0.517405
vt 0.938979 0.526877
vt 0.955080 0.526877
vt 0.955080 0.650908
vt 0.938979 0.650908
vt 0.647139 0.432885
vt 0.769618 0.432885
vt 0.769618 0.446133
vt 0.647139 0.446133
vt 0.846521 0.838885
vt 0.846521 0.961398
vt 0.831139 0.961398
vt 0.831139 0.838885
vt 0.858342 0.628259
vt 0.845094 0.628259
vt 0.845094 0.612881
vt 0.858342 0.612881
vt 0.902163 0.394884
vt 0.902163 0.517404
vt 0.886780 0.517404
vt 0.886780 0.394884
vt 0.866152 0.632881
vt 0.879406 0.632881
vt 0.879406 0.648266
vt 0.866152 0.648266
vt 0.976934 0.632882
vt 0.993034 0.632882
vt 0.993034 0.756907
vt 0.976934 0.756907
vt 0.915414 0.394884
vt 0.915414 0.517404
vt 0.911845 0.838879
vt 0.911845 0.961409
vt 0.898592 0.961409
vt 0.898592 0.838879
vt 0.797989 0.687409
vt 0.797989 0.564888
vt 0.813372 0.564888
vt 0.813372 0.687409
vt 0.953967 0.878263
vt 0.940719 0.878263
vt 0.940719 0.862885
vt 0.953967 0.862885
vt 0.869712 0.838884
vt 0.869712 0.961352
vt 0.854335 0.961352
vt 0.854335 0.838884
vt 0.916374 0.682888
vt 0.932475 0.682888
vt 0.932474 0.806914
vt 0.916374 0.806914
vt 0.919655 0.900136
vt 0.919655 0.886883
vt 0.935040 0.886883
vt 0.935040 0.900136
vt 0.800116 0.819397
vt 0.784734 0.819397
vt 0.784734 0.696884
vt 0.800116 0.696884
vt 0.881543 0.578133
vt 0.866158 0.578133
vt 0.866158 0.564879
vt 0.881543 0.564879
vt 0.647143 0.410268
vt 0.647143 0.394888
vt 0.769639 0.394888
vt 0.769639 0.410268
vt 0.889353 0.580270
vt 0.889353 0.564885
vt 0.902606 0.564885
vt 0.902606 0.580270
vt 0.647143 0.423517
vt 0.769639 0.423517
vt 0.877530 0.838885
vt 0.890777 0.838885
vt 0.890777 0.961364
vt 0.877530 0.961364
vt 0.800131 0.951398
vt 0.784749 0.951398
vt 0.784749 0.828885
vt 0.800131 0.828885
vt 0.887214 0.648267
vt 0.887214 0.632888
vt 0.900463 0.632888
vt 0.900463 0.648267
vt 0.938603 0.517381
vt 0.923223 0.517381
vt 0.923223 0.394884
vt 0.938603 0.394884
vt 0.919650 0.878266
vt 0.919650 0.862881
vt 0.932904 0.862881
vt 0.932904 0.878266
vt 0.951852 0.517381
vt 0.951852 0.394884
vt 0.647139 0.512133
vt 0.647139 0.498886
vt 0.769618 0.498886
vt 0.769618 0.512133
vt 0.807942 0.838885
vt 0.823323 0.838885
vt 0.823323 0.961398
vt 0.807941 0.961398
vt 0.940707 0.854266
vt 0.940707 0.838881
vt 0.953961 0.838881
vt 0.953961 0.854266
vt 0.784738 0.542264
vt 0.784738 0.526881
vt 0.907259 0.526881
vt 0.907259 0.542264
vt 0.919649 0.854267
vt 0.919649 0.838888
vt 0.932898 0.838888
vt 0.932898 0.854267
vt 0.784738 0.555515
vt 0.907259 0.555515
vt 0.769669 0.526880
vt 0.769669 0.540133
vt 0.647139 0.540133
vt 0.647139 0.526880
vt 0.963751 0.764885
vt 0.979127 0.764885
vt 0.979127 0.887353
vt 0.963751 0.887353
vt 0.887223 0.588881
vt 0.902602 0.588881
vt 0.902602 0.602130
vt 0.887223 0.602130
vt 0.829272 0.517385
vt 0.813892 0.517385
vt 0.813892 0.394888
vt 0.829272 0.394888
vt 0.889340 0.610878
vt 0.904725 0.610878
vt 0.904725 0.624131
vt 0.889340 0.624131
vt 0.842521 0.517385
vt 0.842521 0.394888
vt 0.631607 0.992133
vt 0.631607 0.978880
vt 0.754137 0.978880
vt 0.754137 0.992133
vt 0.784737 0.687409
vt 0.784737 0.564888
vt 0.863584 0.517385
vt 0.863584 0.394888
vt 0.878964 0.394888
vt 0.878964 0.517385
vt 0.879408 0.602266
vt 0.866155 0.602266
vt 0.866155 0.586881
vt 0.879408 0.586881
vt 0.647141 0.476885
vt 0.769620 0.476885
vt 0.769620 0.490132
vt 0.647141 0.490132
vt 0.953635 0.830267
vt 0.831122 0.830267
vt 0.831122 0.814885
vt 0.953635 0.814885
vt 0.866151 0.624132
vt 0.866151 0.610884
vt 0.881530 0.610884
vt 0.881530 0.624132
vt 0.850335 0.517385
vt 0.850335 0.394888
vt 0.967395 0.004877
vt 0.967394 0.386983
vt 0.951295 0.386983
vt 0.951295 0.004877
vt 0.827278 0.386983
vt 0.827278 0.004877
vt 0.647137 0.454888
vt 0.769616 0.454888
vt 0.769616 0.468135
vt 0.647137 0.468135
vt 0.811178 0.386983
vt 0.811178 0.004877
vt 0.386997 0.838903
vt 0.004882 0.838903
vt 0.004882 0.714883
vt 0.386997 0.714883
vt 0.776923 0.564985
vt 0.394809 0.564986
vt 0.394809 0.548886
vt 0.776923 0.548886
vt 0.787259 0.386996
vt 0.787259 0.004877
vt 0.803359 0.004877
vt 0.803359 0.386996
vt 0.386995 0.970898
vt 0.004885 0.970898
vt 0.004885 0.846879
vt 0.386995 0.846879
vt 0.776923 0.689005
vt 0.394809 0.689005
vt 0.776923 0.705105
vt 0.394809 0.705105
vt 0.663237 0.386997
vt 0.663237 0.004877
vt 0.647137 0.386996
vt 0.647137 0.004877
vt 0.387001 0.705103
vt 0.004882 0.705103
vt 0.004882 0.689003
vt 0.387001 0.689003
vt 0.004882 0.564982
vt 0.387001 0.564981
vt 0.776918 0.838904
vt 0.394803 0.838904
vt 0.394803 0.714884
vt 0.776918 0.714884
vt 0.004882 0.548882
vt 0.387001 0.548881
vt 0.776939 0.970902
vt 0.394812 0.970902
vt 0.394812 0.846878
vt 0.776939 0.846878
s 0
f 1/1/1 2/2/1 4/3/1 3/4/1
f 3/5/2 4/6/2 8/7/2 7/8/2
f 7/9/3 8/10/3 6/11/3 5/12/3
f 5/12/4 6/11/4 2/2/4 1/1/4
f 3/13/5 7/14/5 5/15/5 1/16/5
f 8/10/6 4/17/6 2/18/6 6/11/6
f 9/19/3 11/20/3 12/21/3 10/22/3
f 11/23/5 9/24/5 13/25/5 15/26/5
f 13/27/4 9/19/4 10/22/4 14/28/4
f 11/29/2 15/30/2 16/31/2 12/32/2
f 15/33/1 13/27/1 14/28/1 16/34/1
f 16/34/6 14/28/6 10/35/6 12/36/6
f 20/37/3 18/38/3 22/39/3 24/40/3
f 44/41/3 42/42/3 46/43/3 48/44/3
f 36/45/3 34/46/3 38/47/3 40/48/3
f 28/49/3 26/50/3 30/51/3 32/52/3
f 19/53/1 23/54/1 21/55/1 17/56/1
f 81/57/3 83/58/3 84/59/3 82/60/3
f 83/61/2 87/62/2 88/63/2 84/64/2
f 83/65/5 81/66/5 85/67/5 87/68/5
f 85/69/4 81/70/4 82/71/4 86/72/4
f 87/68/1 85/67/1 86/73/1 88/74/1
f 27/75/1 31/76/1 29/77/1 25/78/1
f 88/79/6 86/80/6 82/81/6 84/82/6
f 89/83/3 91/84/3 92/85/3 90/86/3
f 93/87/4 89/88/4 90/89/4 94/90/4
f 95/91/1 93/92/1 94/93/1 96/94/1
f 91/95/2 95/96/2 96/97/2 92/98/2
f 35/99/1 39/100/1 37/101/1 33/102/1
f 91/103/5 89/104/5 93/92/5 95/91/5
f 96/105/6 94/106/6 90/107/6 92/108/6
f 103/109/1 101/110/1 102/111/1 104/112/1
f 99/113/2 103/114/2 104/115/2 100/116/2
f 97/117/3 99/118/3 100/119/3 98/120/3
f 43/121/1 47/122/1 45/123/1 41/124/1
f 101/125/4 97/126/4 98/127/4 102/128/4
f 49/129/1 50/130/1 52/131/1 51/132/1
f 51/133/2 52/134/2 56/135/2 55/136/2
f 55/137/3 56/138/3 54/139/3 53/140/3
f 53/141/4 54/142/4 50/143/4 49/144/4
f 51/145/5 55/137/5 53/140/5 49/146/5
f 56/147/6 52/148/6 50/149/6 54/150/6
f 57/151/1 58/152/1 60/153/1 59/154/1
f 59/155/2 60/156/2 64/157/2 63/158/2
f 63/159/3 64/160/3 62/161/3 61/162/3
f 61/163/4 62/164/4 58/165/4 57/166/4
f 59/167/5 63/159/5 61/162/5 57/168/5
f 64/169/6 60/170/6 58/171/6 62/172/6
f 65/173/1 66/174/1 68/175/1 67/176/1
f 67/177/2 68/178/2 72/179/2 71/180/2
f 71/181/3 72/182/3 70/183/3 69/184/3
f 69/185/4 70/186/4 66/187/4 65/188/4
f 67/189/5 71/181/5 69/184/5 65/190/5
f 72/191/6 68/192/6 66/193/6 70/194/6
f 73/195/1 74/196/1 76/197/1 75/198/1
f 75/199/2 76/200/2 80/201/2 79/202/2
f 79/203/3 80/204/3 78/205/3 77/206/3
f 77/207/4 78/208/4 74/209/4 73/210/4
f 75/211/5 79/203/5 77/206/5 73/212/5
f 80/213/6 76/214/6 74/215/6 78/216/6
f 99/217/5 97/218/5 101/110/5 103/109/5
f 111/219/1 109/220/1 110/221/1 112/222/1
f 107/223/2 111/224/2 112/225/2 108/226/2
f 104/227/6 102/228/6 98/229/6 100/230/6
f 105/231/3 107/232/3 108/233/3 106/234/3
f 109/235/4 105/236/4 106/237/4 110/238/4
f 107/239/5 105/240/5 109/220/5 111/219/5
f 45/241/4 46/242/4 42/243/4 41/244/4
f 41/244/6 42/243/6 44/245/6 43/246/6
f 112/247/6 110/248/6 106/249/6 108/250/6
f 43/246/2 44/245/2 48/251/2 47/252/2
f 39/253/5 40/254/5 38/255/5 37/256/5
f 35/257/2 36/258/2 40/259/2 39/260/2
f 27/261/2 28/262/2 32/263/2 31/264/2
f 31/265/5 32/266/5 30/267/5 29/268/5
f 33/269/6 34/270/6 36/258/6 35/257/6
f 37/271/4 38/272/4 34/270/4 33/269/4
f 25/273/6 26/274/6 28/262/6 27/261/6
f 29/275/4 30/276/4 26/274/4 25/273/4
f 21/277/4 22/278/4 18/279/4 17/280/4
f 17/280/6 18/279/6 20/281/6 19/282/6
f 23/283/5 24/284/5 22/285/5 21/286/5
f 19/282/2 20/281/2 24/287/2 23/288/2
f 47/289/5 48/290/5 46/291/5 45/292/5
