# Blender 4.0.2
# www.blender.org
o stepstool
v -0.142500 0.113988 -0.010958
v 0.142500 0.113988 -0.010958
v -0.142500 0.113988 0.104775
v 0.142500 0.113988 0.104775
v -0.142500 0.098988 -0.010958
v 0.142500 0.098988 -0.010958
v -0.142500 0.098988 0.104775
v 0.142500 0.098988 0.104775
v -0.142500 0.228600 -0.104775
v 0.142500 0.228600 -0.104775
v -0.142500 0.228600 0.010958
v 0.142500 0.228600 0.010958
v -0.142500 0.213600 -0.104775
v 0.142500 0.213600 -0.104775
v -0.142500 0.213600 0.010958
v 0.142500 0.213600 0.010958
v 0.000000 0.113988 -0.010958
v 0.000000 0.113988 0.104775
v 0.000000 0.098988 -0.010958
v 0.000000 0.098988 0.104775
v 0.000000 0.228600 -0.104775
v 0.000000 0.228600 0.010958
v 0.000000 0.213600 -0.104775
v 0.000000 0.213600 0.010958
v -0.136500 0.000000 0.098775
v -0.136500 0.000000 -0.098775
v -0.136500 0.213600 -0.098775
v -0.136500 0.213600 0.004958
v -0.136500 0.098988 0.098775
v -0.136500 0.098988 -0.098775
v -0.136500 0.098988 0.004958
v -0.136500 0.000000 0.064788
v -0.136500 0.098988 -0.047941
v -0.136500 0.024311 0.049331
v -0.136500 0.039434 0.026698
v -0.136500 0.044745 0.000000
v -0.136500 0.039434 -0.026698
v -0.136500 0.024311 -0.049331
v -0.136500 0.213600 -0.047941
v -0.136500 0.000000 -0.064788
v -0.136500 0.098988 0.050996
v -0.124500 0.000000 0.098775
v -0.124500 0.000000 -0.098775
v -0.124500 0.213600 -0.098775
v -0.124500 0.213600 0.004958
v -0.124500 0.098988 0.098775
v -0.124500 0.098988 -0.098775
v -0.124500 0.098988 0.004958
v -0.124500 0.000000 0.064788
v -0.124500 0.098988 -0.047941
v -0.124500 0.024311 0.049331
v -0.124500 0.039434 0.026698
v -0.124500 0.044745 0.000000
v -0.124500 0.039434 -0.026698
v -0.124500 0.024311 -0.049331
v -0.124500 0.213600 -0.047941
v -0.124500 0.000000 -0.064788
v -0.124500 0.098988 0.050996
v 0.136500 0.000000 0.098775
v 0.136500 0.000000 -0.098775
v 0.136500 0.213600 -0.098775
v 0.136500 0.213600 0.004958
v 0.136500 0.098988 0.098775
v 0.136500 0.098988 -0.098775
v 0.136500 0.098988 0.004958
v 0.136500 0.000000 0.064788
v 0.136500 0.098988 -0.047941
v 0.136500 0.024311 0.049331
v 0.136500 0.039434 0.026698
v 0.136500 0.044745 0.000000
v 0.136500 0.039434 -0.026698
v 0.136500 0.024311 -0.049331
v 0.136500 0.213600 -0.047941
v 0.136500 0.000000 -0.064788
v 0.136500 0.098988 0.050996
v 0.124500 0.000000 0.098775
v 0.124500 0.000000 -0.098775
v 0.124500 0.213600 -0.098775
v 0.124500 0.213600 0.004958
v 0.124500 0.098988 0.098775
v 0.124500 0.098988 -0.098775
v 0.124500 0.098988 0.004958
v 0.124500 0.000000 0.064788
v 0.124500 0.098988 -0.047941
v 0.124500 0.024311 0.049331
v 0.124500 0.039434 0.026698
v 0.124500 0.044745 0.000000
v 0.124500 0.039434 -0.026698
v 0.124500 0.024311 -0.049331
v 0.124500 0.213600 -0.047941
v 0.124500 0.000000 -0.064788
v 0.124500 0.098988 0.050996
vn -0.0000 1.0000 -0.0000
vn -0.0000 -1.0000 -0.0000
vn -1.0000 -0.0000 -0.0000
vn -0.0000 -0.0000 1.0000
vn -0.0000 -0.0000 -1.0000
vn 1.0000 -0.0000 -0.0000
vn -0.0000 -0.5365 -0.8439
vn -0.0000 -0.6990 -0.7151
vn -0.0000 -0.9239 -0.3827
vn -0.0000 -0.9239 0.3827
vn -0.0000 -0.6990 0.7151
vn -0.0000 -0.5365 0.8439
vt 0.263463 0.279506
vt 0.497415 0.279506
vt 0.497415 0.469511
vt 0.263464 0.469511
vt 0.519057 0.756827
vt 0.709061 0.756827
vt 0.709061 0.990775
vt 0.519057 0.990775
vt 0.522041 0.279506
vt 0.522041 0.469511
vt 0.263464 0.494138
vt 0.029512 0.494138
vt 0.029512 0.469511
vt 0.908830 0.756842
vt 0.908830 0.990795
vt 0.718823 0.990795
vt 0.718823 0.756842
vt 0.497415 0.494138
vt 0.263464 0.029510
vt 0.497416 0.029510
vt 0.497415 0.219517
vt 0.263464 0.219517
vt 0.718823 0.522889
vt 0.908830 0.522889
vt 0.522043 0.029510
vt 0.522042 0.219517
vt 0.029512 0.029510
vt 0.029512 0.004884
vt 0.263464 0.004884
vt 0.519057 0.522878
vt 0.709060 0.522878
vt 0.497415 0.244143
vt 0.263464 0.244143
vt 0.029512 0.219517
vt 0.004885 0.219517
vt 0.004885 0.029510
vt 0.029512 0.279506
vt 0.029512 0.254879
vt 0.263463 0.254879
vt 0.029512 0.244143
vt 0.497416 0.004884
vt 0.004886 0.469511
vt 0.004886 0.279506
vt 0.497415 0.254879
vt 0.425829 0.693044
vt 0.425829 0.504878
vt 0.509286 0.504878
vt 0.509286 0.693044
vt 0.303290 0.790817
vt 0.263398 0.693044
vt 0.338981 0.693044
vt 0.347121 0.782099
vt 0.509286 0.855559
vt 0.453487 0.855559
vt 0.428111 0.815646
vt 0.184956 0.693044
vt 0.266131 0.815646
vt 0.184956 0.855559
vt 0.240755 0.855559
vt 0.338981 0.504878
vt 0.390952 0.790817
vt 0.694322 0.088336
vt 0.694322 0.004878
vt 0.882490 0.004878
vt 0.882490 0.088335
vt 0.596548 0.210876
vt 0.605266 0.167045
vt 0.694322 0.175185
vt 0.694322 0.250768
vt 0.571719 0.086054
vt 0.531806 0.060678
vt 0.531806 0.004878
vt 0.694322 0.329211
vt 0.571719 0.248035
vt 0.531806 0.329211
vt 0.531806 0.273411
vt 0.882490 0.175184
vt 0.596548 0.123213
vt 0.177177 0.926885
vt 0.339703 0.926885
vt 0.339703 0.946587
vt 0.177177 0.946587
vt 0.970897 0.004879
vt 0.970897 0.167407
vt 0.951195 0.167407
vt 0.951194 0.004879
vt 0.892263 0.389750
vt 0.892263 0.333963
vt 0.911960 0.333963
vt 0.911959 0.389750
vt 0.892263 0.286676
vt 0.911960 0.286676
vt 0.892263 0.241995
vt 0.911960 0.241995
vt 0.892263 0.197314
vt 0.911960 0.197314
vt 0.892263 0.152634
vt 0.892263 0.107954
vt 0.911960 0.107954
vt 0.911960 0.152634
vt 0.892263 0.060667
vt 0.892263 0.004879
vt 0.911960 0.004879
vt 0.911960 0.060667
vt 0.970897 0.355588
vt 0.951195 0.355588
vt 0.941432 0.202882
vt 0.941432 0.391004
vt 0.921736 0.391004
vt 0.921736 0.202882
vt 0.719970 0.427749
vt 0.719970 0.511204
vt 0.531808 0.511204
vt 0.531808 0.427749
vt 0.817742 0.305212
vt 0.809024 0.349043
vt 0.719970 0.340903
vt 0.719970 0.265321
vt 0.842570 0.430030
vt 0.882482 0.455406
vt 0.882482 0.511204
vt 0.719970 0.186881
vt 0.842570 0.268054
vt 0.882482 0.186881
vt 0.882482 0.242679
vt 0.531808 0.340903
vt 0.817742 0.392872
vt 0.088338 0.667400
vt 0.088338 0.855567
vt 0.004881 0.855567
vt 0.004880 0.667400
vt 0.210878 0.569626
vt 0.250770 0.667400
vt 0.175186 0.667400
vt 0.167047 0.578344
vt 0.004881 0.504883
vt 0.060680 0.504883
vt 0.086056 0.544797
vt 0.329213 0.667400
vt 0.248037 0.544797
vt 0.329214 0.504883
vt 0.273413 0.504883
vt 0.175186 0.855567
vt 0.123215 0.569626
vt 0.167410 0.926878
vt 0.167410 0.946580
vt 0.004884 0.946580
vt 0.004884 0.926878
vt 0.355589 0.866881
vt 0.355589 0.886584
vt 0.193061 0.886584
vt 0.193061 0.866882
vt 0.389748 0.896886
vt 0.389748 0.916583
vt 0.333961 0.916583
vt 0.333961 0.896886
vt 0.286674 0.916583
vt 0.286674 0.896886
vt 0.241993 0.916583
vt 0.241993 0.896886
vt 0.197313 0.916583
vt 0.197313 0.896886
vt 0.152632 0.896886
vt 0.152632 0.916583
vt 0.107951 0.916584
vt 0.107951 0.896886
vt 0.060664 0.896886
vt 0.060664 0.916584
vt 0.004877 0.916583
vt 0.004877 0.896886
vt 0.004879 0.886584
vt 0.004879 0.866881
vt 0.921732 0.004883
vt 0.941434 0.004883
vt 0.941434 0.193060
vt 0.921732 0.193060
s 1
f 17/1/1 1/2/1 3/3/1 18/4/1
f 19/5/2 20/6/2 7/7/2 5/8/2
f 3/3/3 1/2/3 5/9/3 7/10/3
f 18/4/4 20/11/4 8/12/4 4/13/4
f 23/14/2 14/15/2 16/16/2 24/17/2
f 18/4/4 3/3/4 7/18/4 20/11/4
f 21/19/1 9/20/1 11/21/1 22/22/1
f 23/14/2 24/17/2 15/23/2 13/24/2
f 11/21/3 9/20/3 13/25/3 15/26/3
f 10/27/5 14/28/5 23/29/5 21/19/5
f 19/5/2 6/30/2 8/31/2 20/6/2
f 22/22/4 11/21/4 15/32/4 24/33/4
f 12/34/6 16/35/6 14/36/6 10/27/6
f 2/37/5 6/38/5 19/39/5 17/1/5
f 22/22/4 24/33/4 16/40/4 12/34/4
f 9/20/5 21/19/5 23/29/5 13/41/5
f 4/13/6 8/42/6 6/43/6 2/37/6
f 21/19/1 22/22/1 12/34/1 10/27/1
f 17/1/1 18/4/1 4/13/1 2/37/1
f 1/2/5 17/1/5 19/39/5 5/44/5
f 33/45/3 39/46/3 27/47/3 30/48/3
f 35/49/3 41/50/3 31/51/3 36/52/3
f 30/48/3 26/53/3 40/54/3 38/55/3
f 29/56/3 41/50/3 35/49/3 34/57/3
f 25/58/3 29/56/3 34/57/3 32/59/3
f 31/51/3 28/60/3 39/46/3 33/45/3
f 31/51/3 33/45/3 37/61/3 36/52/3
f 33/45/3 30/48/3 38/55/3 37/61/3
f 50/62/6 47/63/6 44/64/6 56/65/6
f 52/66/6 53/67/6 48/68/6 58/69/6
f 47/63/6 55/70/6 57/71/6 43/72/6
f 46/73/6 51/74/6 52/66/6 58/69/6
f 42/75/6 49/76/6 51/74/6 46/73/6
f 48/68/6 50/62/6 56/65/6 45/77/6
f 48/68/6 53/67/6 54/78/6 50/62/6
f 50/62/6 54/78/6 55/70/6 47/63/6
f 29/79/4 25/80/4 42/81/4 46/82/4
f 26/83/5 30/84/5 47/85/5 43/86/5
f 25/87/2 32/88/2 49/89/2 42/90/2
f 32/88/7 34/91/8 51/92/8 49/89/7
f 34/91/8 35/93/9 52/94/9 51/92/8
f 35/93/9 36/95/2 53/96/2 52/94/9
f 37/97/10 38/98/11 55/99/11 54/100/10
f 40/101/2 26/102/2 43/103/2 57/104/2
f 36/95/2 37/97/10 54/100/10 53/96/2
f 30/84/5 27/105/5 44/106/5 47/85/5
f 38/98/11 40/101/12 57/104/12 55/99/11
f 28/107/4 31/108/4 48/109/4 45/110/4
f 67/111/6 64/112/6 61/113/6 73/114/6
f 69/115/6 70/116/6 65/117/6 75/118/6
f 64/112/6 72/119/6 74/120/6 60/121/6
f 63/122/6 68/123/6 69/115/6 75/118/6
f 59/124/6 66/125/6 68/123/6 63/122/6
f 65/117/6 67/111/6 73/114/6 62/126/6
f 65/117/6 70/116/6 71/127/6 67/111/6
f 67/111/6 71/127/6 72/119/6 64/112/6
f 84/128/3 90/129/3 78/130/3 81/131/3
f 86/132/3 92/133/3 82/134/3 87/135/3
f 81/131/3 77/136/3 91/137/3 89/138/3
f 80/139/3 92/133/3 86/132/3 85/140/3
f 76/141/3 80/139/3 85/140/3 83/142/3
f 82/134/3 79/143/3 90/129/3 84/128/3
f 82/134/3 84/128/3 88/144/3 87/135/3
f 84/128/3 81/131/3 89/138/3 88/144/3
f 63/145/4 80/146/4 76/147/4 59/148/4
f 60/149/5 77/150/5 81/151/5 64/152/5
f 59/153/2 76/154/2 83/155/2 66/156/2
f 66/156/7 83/155/7 85/157/8 68/158/8
f 68/158/8 85/157/8 86/159/9 69/160/9
f 69/160/9 86/159/9 87/161/2 70/162/2
f 71/163/10 88/164/10 89/165/11 72/166/11
f 74/167/2 91/168/2 77/169/2 60/170/2
f 70/162/2 87/161/2 88/164/10 71/163/10
f 64/152/5 81/151/5 78/171/5 61/172/5
f 72/166/11 89/165/11 91/168/12 74/167/12
f 62/173/4 79/174/4 82/175/4 65/176/4
