# Blender 4.0.2
# www.blender.org
o saw_horse
v 0.421273 0.232936 0.159153
v 0.421287 0.539391 0.065956
v 0.432361 0.232936 0.159153
v 0.432348 0.539391 0.065956
v 0.421273 0.232936 -0.159153
v 0.421287 0.539391 -0.065956
v 0.432361 0.232936 -0.159153
v 0.432348 0.539391 -0.065956
v 0.371792 0.000000 0.230000
v 0.371792 0.579391 0.053796
v 0.371792 0.000000 0.163304
v 0.421792 0.000000 0.230000
v 0.421792 0.579391 0.053796
v 0.421792 0.000000 0.163304
v 0.371792 0.539211 0.066016
v 0.371792 0.539391 0.001000
v 0.421792 0.539391 0.001000
v 0.421792 0.539211 0.066016
v 0.371792 0.579391 0.040000
v 0.371792 0.539391 0.040000
v 0.421792 0.579391 0.040000
v 0.421792 0.539391 0.040000
v 0.371792 0.000000 0.196652
v 0.421792 0.000000 0.196652
v 0.371792 0.000000 -0.230000
v 0.371792 0.579391 -0.053796
v 0.371792 0.000000 -0.163304
v 0.421792 0.000000 -0.230000
v 0.421792 0.579391 -0.053796
v 0.421792 0.000000 -0.163304
v 0.371792 0.539211 -0.066016
v 0.371792 0.539391 -0.001000
v 0.421792 0.539391 -0.001000
v 0.421792 0.539211 -0.066016
v 0.371792 0.579391 -0.040000
v 0.371792 0.539391 -0.040000
v 0.421792 0.579391 -0.040000
v 0.421792 0.539391 -0.040000
v 0.371792 0.000000 -0.196652
v 0.421792 0.000000 -0.196652
v -0.421273 0.232936 0.159153
v -0.421287 0.539391 0.065956
v -0.432361 0.232936 0.159153
v -0.432348 0.539391 0.065956
v -0.421273 0.232936 -0.159153
v -0.421287 0.539391 -0.065956
v -0.432361 0.232936 -0.159153
v -0.432348 0.539391 -0.065956
v -0.371792 0.000000 0.230000
v -0.371792 0.579391 0.053796
v -0.371792 0.000000 0.163304
v -0.421792 0.000000 0.230000
v -0.421792 0.579391 0.053796
v -0.421792 0.000000 0.163304
v -0.371792 0.539211 0.066016
v -0.371792 0.539391 0.001000
v -0.421792 0.539391 0.001000
v -0.421792 0.539211 0.066016
v -0.371792 0.579391 0.040000
v -0.371792 0.539391 0.040000
v -0.421792 0.579391 0.040000
v -0.421792 0.539391 0.040000
v -0.371792 0.000000 0.196652
v -0.421792 0.000000 0.196652
v -0.371792 0.000000 -0.230000
v -0.371792 0.579391 -0.053796
v -0.371792 0.000000 -0.163304
v -0.421792 0.000000 -0.230000
v -0.421792 0.579391 -0.053796
v -0.421792 0.000000 -0.163304
v -0.371792 0.539211 -0.066016
v -0.371792 0.539391 -0.001000
v -0.421792 0.539391 -0.001000
v -0.421792 0.539211 -0.066016
v -0.371792 0.579391 -0.040000
v -0.371792 0.539391 -0.040000
v -0.421792 0.579391 -0.040000
v -0.421792 0.539391 -0.040000
v -0.371792 0.000000 -0.196652
v -0.421792 0.000000 -0.196652
v -0.500000 0.539391 0.040000
v -0.500000 0.579391 0.040000
v -0.500000 0.539391 -0.040000
v -0.500000 0.579391 -0.040000
v 0.500000 0.539391 0.040000
v 0.500000 0.579391 0.040000
v 0.500000 0.539391 -0.040000
v 0.500000 0.579391 -0.040000
vn -1.0000 -0.0000 -0.0000
vn -0.0000 0.2910 0.9567
vn 1.0000 -0.0000 -0.0000
vn -0.0000 -1.0000 -0.0000
vn -0.0000 0.2910 -0.9567
vn -0.0000 1.0000 -0.0000
vn -0.0000 -0.2881 -0.9576
vn -0.0000 -0.0000 -1.0000
vn -0.0000 -0.2881 0.9576
vn -0.0000 -0.0000 1.0000
vt 0.403534 0.204882
vt 0.655769 0.204882
vt 0.581917 0.447726
vt 0.477386 0.447725
vt 0.014499 0.213665
vt 0.088351 0.456507
vt 0.079964 0.459057
vt 0.006093 0.216221
vt 0.266732 0.213665
vt 0.192880 0.456507
vt 0.014499 0.204879
vt 0.266732 0.204879
vt 0.275138 0.216221
vt 0.201266 0.459057
vt 0.192880 0.465272
vt 0.088351 0.465272
vt 0.525453 0.569456
vt 0.492173 0.569456
vt 0.488992 0.558996
vt 0.519318 0.549774
vt 0.038159 0.802501
vt 0.004881 0.802501
vt 0.004881 0.762881
vt 0.038159 0.762881
vt 0.946288 0.104881
vt 0.946288 0.144500
vt 0.919865 0.144500
vt 0.919865 0.104881
vt 0.484749 0.802501
vt 0.484749 0.762882
vt 0.014275 0.666180
vt 0.459317 0.671780
vt 0.453182 0.691462
vt 0.006587 0.691462
vt 0.004887 0.862881
vt 0.451231 0.862881
vt 0.451231 0.902501
vt 0.004887 0.902501
vt 0.964372 0.544173
vt 0.510326 0.520206
vt 0.956683 0.518891
vt 0.015817 0.004880
vt 0.015817 0.044505
vt 0.004884 0.044505
vt 0.004884 0.004880
vt 0.489642 0.681002
vt 0.486461 0.691462
vt 0.972712 0.104881
vt 0.972712 0.144500
vt 0.972061 0.569456
vt 0.021964 0.640898
vt 0.468309 0.642213
vt 0.942842 0.004886
vt 0.973746 0.004886
vt 0.973746 0.044506
vt 0.942842 0.044506
vt 0.911146 0.004886
vt 0.911146 0.044506
vt 0.955029 0.631462
vt 0.961164 0.611780
vt 0.991489 0.621002
vt 0.988308 0.631462
vt 0.527797 0.812879
vt 0.527797 0.852501
vt 0.494517 0.852501
vt 0.494517 0.812879
vt 0.699243 0.213452
vt 0.725666 0.213452
vt 0.725666 0.253069
vt 0.699243 0.253069
vt 0.974414 0.812879
vt 0.974414 0.852501
vt 0.488369 0.604175
vt 0.496057 0.629455
vt 0.049481 0.629456
vt 0.043347 0.609775
vt 0.451256 0.912878
vt 0.451256 0.952500
vt 0.004888 0.952500
vt 0.004887 0.912878
vt 0.516120 0.606180
vt 0.523809 0.580898
vt 0.970156 0.582213
vt 0.994442 0.044508
vt 0.983508 0.044508
vt 0.983508 0.004883
vt 0.994442 0.004883
vt 0.016204 0.629456
vt 0.013023 0.618997
vt 0.672820 0.213452
vt 0.672820 0.253069
vt 0.508432 0.631462
vt 0.480680 0.578894
vt 0.034355 0.580209
vt 0.870475 0.086577
vt 0.910094 0.086577
vt 0.910094 0.117481
vt 0.870475 0.117481
vt 0.870475 0.054881
vt 0.910094 0.054881
vt 0.214943 0.447720
vt 0.288793 0.204882
vt 0.393321 0.204882
vt 0.467172 0.447720
vt 0.701278 0.453397
vt 0.692872 0.450840
vt 0.766743 0.208007
vt 0.775129 0.210558
vt 0.879657 0.210558
vt 0.953508 0.453397
vt 0.701278 0.462183
vt 0.953508 0.462183
vt 0.888043 0.208007
vt 0.961914 0.450840
vt 0.775129 0.201793
vt 0.879657 0.201793
vt 0.244807 0.458884
vt 0.238672 0.478566
vt 0.208347 0.469343
vt 0.211527 0.458884
vt 0.527795 0.762885
vt 0.527795 0.802505
vt 0.494517 0.802505
vt 0.494517 0.762885
vt 0.683471 0.306062
vt 0.657045 0.306062
vt 0.657045 0.266440
vt 0.683471 0.266441
vt 0.974385 0.762885
vt 0.974385 0.802505
vt 0.501041 0.726174
vt 0.508730 0.751456
vt 0.062123 0.751457
vt 0.055988 0.731774
vt 0.907338 0.862885
vt 0.907338 0.902505
vt 0.460995 0.902505
vt 0.460994 0.862885
vt 0.683726 0.484166
vt 0.676037 0.509449
vt 0.229680 0.508134
vt 0.870477 0.161813
vt 0.870477 0.150879
vt 0.910102 0.150879
vt 0.910102 0.161813
vt 0.028843 0.751457
vt 0.025662 0.740997
vt 0.709897 0.306062
vt 0.709898 0.266441
vt 0.691415 0.458884
vt 0.493352 0.700892
vt 0.046996 0.702207
vt 0.870477 0.044502
vt 0.870477 0.004882
vt 0.901381 0.004882
vt 0.901381 0.044502
vt 0.838781 0.044502
vt 0.838781 0.004882
vt 0.936673 0.642885
vt 0.969953 0.642885
vt 0.973134 0.653344
vt 0.942809 0.662567
vt 0.038159 0.852502
vt 0.004881 0.852502
vt 0.004881 0.812882
vt 0.038159 0.812882
vt 0.946289 0.054884
vt 0.946289 0.094503
vt 0.919865 0.094503
vt 0.919865 0.054884
vt 0.484748 0.852502
vt 0.484748 0.812882
vt 0.481487 0.544165
vt 0.036420 0.538565
vt 0.042556 0.518882
vt 0.489176 0.518882
vt 0.517666 0.704884
vt 0.964010 0.704884
vt 0.964010 0.744504
vt 0.517666 0.744504
vt 0.497755 0.668167
vt 0.951801 0.692135
vt 0.505444 0.693450
vt 0.870476 0.128881
vt 0.910093 0.128881
vt 0.910093 0.139812
vt 0.870476 0.139812
vt 0.006094 0.529342
vt 0.009275 0.518882
vt 0.972713 0.054884
vt 0.972713 0.094503
vt 0.490066 0.642885
vt 0.473798 0.569448
vt 0.027428 0.568133
vt 0.672999 0.320768
vt 0.703903 0.320768
vt 0.703903 0.360389
vt 0.672999 0.360389
vt 0.641303 0.320768
vt 0.641303 0.360388
vt 0.004887 0.099973
vt 0.036584 0.099973
vt 0.036584 0.163367
vt 0.004887 0.163367
vt 0.036584 0.195064
vt 0.829015 0.163367
vt 0.829015 0.195064
vt 0.860713 0.163367
vt 0.829015 0.099973
vt 0.860713 0.099973
vt 0.829015 0.068275
vt 0.036584 0.068275
vt 0.036584 0.004881
vt 0.829016 0.004881
s 0
f 5/1/1 1/2/1 2/3/1 6/4/1
f 3/5/2 4/6/2 2/7/2 1/8/2
f 3/5/3 7/9/3 8/10/3 4/6/3
f 1/11/4 5/12/4 7/9/4 3/5/4
f 7/9/5 5/13/5 6/14/5 8/10/5
f 4/6/6 8/10/6 6/15/6 2/16/6
f 15/17/1 10/18/1 19/19/1 20/20/1
f 18/21/2 13/22/2 10/23/2 15/24/2
f 23/25/4 24/26/4 12/27/4 9/28/4
f 12/29/2 18/21/2 15/24/2 9/30/2
f 24/31/3 22/32/3 18/33/3 12/34/3
f 11/35/7 16/36/7 17/37/7 14/38/7
f 23/39/1 20/20/1 16/40/1 11/41/1
f 21/42/6 19/43/6 10/44/6 13/45/6
f 22/32/3 21/46/3 13/47/3 18/33/3
f 11/48/4 14/49/4 24/26/4 23/25/4
f 9/50/1 15/17/1 20/20/1 23/39/1
f 14/51/3 17/52/3 22/32/3 24/31/3
f 22/53/6 17/54/6 16/55/6 20/56/6
f 21/57/8 22/53/8 20/56/8 19/58/8
f 31/59/1 36/60/1 35/61/1 26/62/1
f 34/63/5 31/64/5 26/65/5 29/66/5
f 39/67/4 25/68/4 28/69/4 40/70/4
f 28/71/5 25/72/5 31/64/5 34/63/5
f 40/73/3 28/74/3 34/75/3 38/76/3
f 27/77/9 30/78/9 33/79/9 32/80/9
f 39/81/1 27/82/1 32/83/1 36/60/1
f 37/84/6 29/85/6 26/86/6 35/87/6
f 38/76/3 34/75/3 29/88/3 37/89/3
f 27/90/4 39/67/4 40/70/4 30/91/4
f 25/92/1 39/81/1 36/60/1 31/59/1
f 30/93/3 40/73/3 38/76/3 33/94/3
f 38/95/6 36/96/6 32/97/6 33/98/6
f 37/99/10 35/100/10 36/96/10 38/95/10
f 45/101/3 46/102/3 42/103/3 41/104/3
f 43/105/2 41/106/2 42/107/2 44/108/2
f 43/105/1 44/108/1 48/109/1 47/110/1
f 41/111/4 43/105/4 47/110/4 45/112/4
f 47/110/5 48/109/5 46/113/5 45/114/5
f 44/108/6 42/115/6 46/116/6 48/109/6
f 55/117/3 60/118/3 59/119/3 50/120/3
f 58/121/2 55/122/2 50/123/2 53/124/2
f 63/125/4 49/126/4 52/127/4 64/128/4
f 52/129/2 49/130/2 55/122/2 58/121/2
f 64/131/1 52/132/1 58/133/1 62/134/1
f 51/135/7 54/136/7 57/137/7 56/138/7
f 63/139/3 51/140/3 56/141/3 60/118/3
f 61/142/6 53/143/6 50/144/6 59/145/6
f 62/134/1 58/133/1 53/146/1 61/147/1
f 51/148/4 63/125/4 64/128/4 54/149/4
f 49/150/3 63/139/3 60/118/3 55/117/3
f 54/151/1 64/131/1 62/134/1 57/152/1
f 62/153/6 60/154/6 56/155/6 57/156/6
f 61/157/8 59/158/8 60/154/8 62/153/8
f 71/159/3 66/160/3 75/161/3 76/162/3
f 74/163/5 69/164/5 66/165/5 71/166/5
f 79/167/4 80/168/4 68/169/4 65/170/4
f 68/171/5 74/163/5 71/166/5 65/172/5
f 80/173/1 78/174/1 74/175/1 68/176/1
f 67/177/9 72/178/9 73/179/9 70/180/9
f 79/181/3 76/162/3 72/182/3 67/183/3
f 77/184/6 75/185/6 66/186/6 69/187/6
f 78/174/1 77/188/1 69/189/1 74/175/1
f 67/190/4 70/191/4 80/168/4 79/167/4
f 65/192/3 71/159/3 76/162/3 79/181/3
f 70/193/1 73/194/1 78/174/1 80/173/1
f 78/195/6 73/196/6 72/197/6 76/198/6
f 77/199/10 78/195/10 76/198/10 75/200/10
f 81/201/1 82/202/1 84/203/1 83/204/1
f 83/205/8 84/203/8 88/206/8 87/207/8
f 87/208/3 88/206/3 86/209/3 85/210/3
f 85/211/10 86/209/10 82/202/10 81/212/10
f 83/213/4 87/214/4 85/211/4 81/212/4
f 88/206/6 84/203/6 82/202/6 86/209/6
